<svg width="46" height="48" viewBox="0 0 46 48" fill="none" xmlns="http://www.w3.org/2000/svg">
<g filter="url(#filter0_i_92_5)">
<ellipse cx="23" cy="24" rx="23" ry="24" fill="#151515"/>
</g>
<path d="M45.5 24C45.5 36.999 35.4066 47.5 23 47.5C10.5934 47.5 0.5 36.999 0.5 24C0.5 11.001 10.5934 0.5 23 0.5C35.4066 0.5 45.5 11.001 45.5 24Z" stroke="#0E0E0E"/>
<path d="M32 14.8462V31.7692C32 31.9936 31.909 32.2089 31.747 32.3676C31.5851 32.5262 31.3654 32.6154 31.1364 32.6154H16.4545C15.9964 32.6154 15.5571 32.7937 15.2332 33.1111C14.9093 33.4284 14.7273 33.8589 14.7273 34.3077H29.4091C29.6381 34.3077 29.8578 34.3968 30.0198 34.5555C30.1817 34.7142 30.2727 34.9294 30.2727 35.1538C30.2727 35.3783 30.1817 35.5935 30.0198 35.7522C29.8578 35.9109 29.6381 36 29.4091 36H13.8636C13.6346 36 13.4149 35.9109 13.253 35.7522C13.091 35.5935 13 35.3783 13 35.1538V17.3846C13 16.487 13.364 15.6261 14.0118 14.9913C14.6597 14.3566 15.5383 14 16.4545 14H31.1364C31.3654 14 31.5851 14.0891 31.747 14.2478C31.909 14.4065 32 14.6217 32 14.8462Z" fill="white" fill-opacity="0.3"/>
<defs>
<filter id="filter0_i_92_5" x="0" y="0" width="46" height="52" filterUnits="userSpaceOnUse" color-interpolation-filters="sRGB">
<feFlood flood-opacity="0" result="BackgroundImageFix"/>
<feBlend mode="normal" in="SourceGraphic" in2="BackgroundImageFix" result="shape"/>
<feColorMatrix in="SourceAlpha" type="matrix" values="0 0 0 0 0 0 0 0 0 0 0 0 0 0 0 0 0 0 127 0" result="hardAlpha"/>
<feOffset dy="4"/>
<feGaussianBlur stdDeviation="2"/>
<feComposite in2="hardAlpha" operator="arithmetic" k2="-1" k3="1"/>
<feColorMatrix type="matrix" values="0 0 0 0 0 0 0 0 0 0 0 0 0 0 0 0 0 0 0.25 0"/>
<feBlend mode="normal" in2="shape" result="effect1_innerShadow_92_5"/>
</filter>
</defs>
</svg>
