<svg xmlns="http://www.w3.org/2000/svg" width="161" height="34" viewBox="0 0 161 34" fill="none">
  <path d="M33.4003 5.20508V7.26185H35.4571V9.31863H33.4003V11.3754H21.0596V25.7728H27.2299V21.6593H25.1732V19.6025H23.1164V17.5457H25.1732V15.489H33.4003V17.5457H35.4571V29.8864H33.4003V31.9432H31.3435V33.9999H10.7757V31.9432H8.71889V29.8864H6.66211V9.31863H8.71889V11.3754H10.7757V9.31863H12.8325V7.26185H10.7757V5.20508H33.4003Z" fill="black"/>
  <path d="M64.2601 25.7728V27.8296H66.3169V31.9432H64.2601V33.9999H41.6355V31.9432H39.5787V7.26185H41.6355V11.3754H43.6923V9.31863H45.749V7.26185H41.6355V5.20508H51.9194V7.26185H53.9762V25.7728H64.2601Z" fill="black"/>
  <path d="M90.0693 15.489V17.5457H88.0125V19.6025H85.9557V31.9432H83.8989V33.9999H75.6718V31.9432H73.615V19.6025H71.5582V17.5457H69.5014V15.489H67.4447V13.4322H65.3879V7.26185H67.4447V11.3754H69.5014V9.31863H71.5582V7.26185H67.4447V5.20508H75.6718V7.26185H77.7286V9.31863H81.8421V7.26185H83.8989V5.20508H92.1261V7.26185H94.1829V13.4322H92.1261V15.489H90.0693Z" fill="black"/>
  <path d="M125.043 9.31863H127.099V21.6593H125.043V23.7161H122.986V25.7728H112.702V31.9432H110.645V33.9999H100.361V31.9432H98.3045V7.26185H100.361V11.3754H102.418V9.31863H104.475V7.26185H100.361V5.20508H122.986V7.26185H125.043V9.31863ZM112.702 11.3754V19.6025H116.816V11.3754H112.702Z" fill="black"/>
  <path d="M157.959 7.26185H160.016V31.9432H157.959V33.9999H151.789V31.9432H149.732V21.6593H145.619V31.9432H143.562V33.9999H133.278V31.9432H131.221V7.26185H133.278V11.3754H135.335V9.31863H137.391V7.26185H133.278V5.20508H143.562V7.26185H145.619V15.489H149.732V7.26185H151.789V5.20508H157.959V7.26185Z" fill="black"/>
  <mask id="path-2-outside-1_207_2930" maskUnits="userSpaceOnUse" x="0" y="0" width="157" height="32" fill="black">
    <rect fill="white" width="157" height="32"/>
    <path d="M28.7382 2V4.05678H30.795V6.11355H28.7382V8.17033H16.3975V22.5678H22.5678V18.4542H20.5111V16.3974H18.4543V14.3407H20.5111V12.2839H28.7382V14.3407H30.795V26.6813H28.7382V28.7381H26.6814V30.7949H6.11357V28.7381H4.05678V26.6813H2V6.11355H4.05678V8.17033H6.11357V6.11355H8.17035V4.05678H6.11357V2H28.7382Z"/>
    <path d="M59.598 22.5678V24.6245H61.6548V28.7381H59.598V30.7949H36.9734V28.7381H34.9166V4.05678H36.9734V8.17033H39.0301V6.11355H41.0869V4.05678H36.9734V2H47.2573V4.05678H49.3141V22.5678H59.598Z"/>
    <path d="M85.4072 12.2839V14.3407H83.3504V16.3974H81.2936V28.7381H79.2368V30.7949H71.0097V28.7381H68.9529V16.3974H66.8961V14.3407H64.8393V12.2839H62.7826V10.2271H60.7258V4.05678H62.7826V8.17033H64.8393V6.11355H66.8961V4.05678H62.7826V2H71.0097V4.05678H73.0665V6.11355H77.18V4.05678H79.2368V2H87.464V4.05678H89.5207V10.2271H87.464V12.2839H85.4072Z"/>
    <path d="M120.381 6.11355H122.437V18.4542H120.381V20.511H118.324V22.5678H108.04V28.7381H105.983V30.7949H95.6991V28.7381H93.6423V4.05678H95.6991V8.17033H97.7559V6.11355H99.8127V4.05678H95.6991V2H118.324V4.05678H120.381V6.11355ZM108.04 8.17033V16.3974H112.153V8.17033H108.04Z"/>
    <path d="M153.297 4.05678H155.354V28.7381H153.297V30.7949H147.127V28.7381H145.07V18.4542H140.956V28.7381H138.9V30.7949H128.616V28.7381H126.559V4.05678H128.616V8.17033H130.673V6.11355H132.729V4.05678H128.616V2H138.9V4.05678H140.956V12.2839H145.07V4.05678H147.127V2H153.297V4.05678Z"/>
  </mask>
  <path d="M28.7382 2V4.05678H30.795V6.11355H28.7382V8.17033H16.3975V22.5678H22.5678V18.4542H20.5111V16.3974H18.4543V14.3407H20.5111V12.2839H28.7382V14.3407H30.795V26.6813H28.7382V28.7381H26.6814V30.7949H6.11357V28.7381H4.05678V26.6813H2V6.11355H4.05678V8.17033H6.11357V6.11355H8.17035V4.05678H6.11357V2H28.7382Z" fill="white"/>
  <path d="M59.598 22.5678V24.6245H61.6548V28.7381H59.598V30.7949H36.9734V28.7381H34.9166V4.05678H36.9734V8.17033H39.0301V6.11355H41.0869V4.05678H36.9734V2H47.2573V4.05678H49.3141V22.5678H59.598Z" fill="white"/>
  <path d="M85.4072 12.2839V14.3407H83.3504V16.3974H81.2936V28.7381H79.2368V30.7949H71.0097V28.7381H68.9529V16.3974H66.8961V14.3407H64.8393V12.2839H62.7826V10.2271H60.7258V4.05678H62.7826V8.17033H64.8393V6.11355H66.8961V4.05678H62.7826V2H71.0097V4.05678H73.0665V6.11355H77.18V4.05678H79.2368V2H87.464V4.05678H89.5207V10.2271H87.464V12.2839H85.4072Z" fill="white"/>
  <path d="M120.381 6.11355H122.437V18.4542H120.381V20.511H118.324V22.5678H108.04V28.7381H105.983V30.7949H95.6991V28.7381H93.6423V4.05678H95.6991V8.17033H97.7559V6.11355H99.8127V4.05678H95.6991V2H118.324V4.05678H120.381V6.11355ZM108.04 8.17033V16.3974H112.153V8.17033H108.04Z" fill="white"/>
  <path d="M153.297 4.05678H155.354V28.7381H153.297V30.7949H147.127V28.7381H145.07V18.4542H140.956V28.7381H138.9V30.7949H128.616V28.7381H126.559V4.05678H128.616V8.17033H130.673V6.11355H132.729V4.05678H128.616V2H138.9V4.05678H140.956V12.2839H145.07V4.05678H147.127V2H153.297V4.05678Z" fill="white"/>
  <path d="M28.7382 2H29.7499V0.988274H28.7382V2ZM28.7382 4.05678H27.7265V5.0685H28.7382V4.05678ZM30.795 4.05678H31.8067V3.04505H30.795V4.05678ZM30.795 6.11355V7.12528H31.8067V6.11355H30.795ZM28.7382 6.11355V5.10183H27.7265V6.11355H28.7382ZM28.7382 8.17033V9.18205H29.7499V8.17033H28.7382ZM16.3975 8.17033V7.1586H15.3858V8.17033H16.3975ZM16.3975 22.5678H15.3858V23.5795H16.3975V22.5678ZM22.5678 22.5678V23.5795H23.5796V22.5678H22.5678ZM22.5678 18.4542H23.5796V17.4425H22.5678V18.4542ZM20.5111 18.4542H19.4993V19.4659H20.5111V18.4542ZM20.5111 16.3974H21.5228V15.3857H20.5111V16.3974ZM18.4543 16.3974H17.4425V17.4092H18.4543V16.3974ZM18.4543 14.3407V13.3289H17.4425V14.3407H18.4543ZM20.5111 14.3407V15.3524H21.5228V14.3407H20.5111ZM20.5111 12.2839V11.2722H19.4993V12.2839H20.5111ZM28.7382 12.2839H29.7499V11.2722H28.7382V12.2839ZM28.7382 14.3407H27.7265V15.3524H28.7382V14.3407ZM30.795 14.3407H31.8067V13.3289H30.795V14.3407ZM30.795 26.6813V27.693H31.8067V26.6813H30.795ZM28.7382 26.6813V25.6696H27.7265V26.6813H28.7382ZM28.7382 28.7381V29.7498H29.7499V28.7381H28.7382ZM26.6814 28.7381V27.7264H25.6697V28.7381H26.6814ZM26.6814 30.7949V31.8066H27.6931V30.7949H26.6814ZM6.11357 30.7949H5.10184V31.8066H6.11357V30.7949ZM6.11357 28.7381H7.12529V27.7264H6.11357V28.7381ZM4.05678 28.7381H3.04506V29.7498H4.05678V28.7381ZM4.05678 26.6813H5.06851V25.6696H4.05678V26.6813ZM2 26.6813H0.988274V27.693H2V26.6813ZM2 6.11355V5.10183H0.988274V6.11355H2ZM4.05678 6.11355H5.06851V5.10183H4.05678V6.11355ZM4.05678 8.17033H3.04506V9.18205H4.05678V8.17033ZM6.11357 8.17033V9.18205H7.12529V8.17033H6.11357ZM6.11357 6.11355V5.10183H5.10184V6.11355H6.11357ZM8.17035 6.11355V7.12528H9.18208V6.11355H8.17035ZM8.17035 4.05678H9.18208V3.04505H8.17035V4.05678ZM6.11357 4.05678H5.10184V5.0685H6.11357V4.05678ZM6.11357 2V0.988274H5.10184V2H6.11357ZM59.598 22.5678H60.6097V21.556H59.598V22.5678ZM59.598 24.6245H58.5863V25.6363H59.598V24.6245ZM61.6548 24.6245H62.6665V23.6128H61.6548V24.6245ZM61.6548 28.7381V29.7498H62.6665V28.7381H61.6548ZM59.598 28.7381V27.7264H58.5863V28.7381H59.598ZM59.598 30.7949V31.8066H60.6097V30.7949H59.598ZM36.9734 30.7949H35.9616V31.8066H36.9734V30.7949ZM36.9734 28.7381H37.9851V27.7264H36.9734V28.7381ZM34.9166 28.7381H33.9049V29.7498H34.9166V28.7381ZM34.9166 4.05678V3.04505H33.9049V4.05678H34.9166ZM36.9734 8.17033H35.9616V9.18205H36.9734V8.17033ZM39.0301 8.17033V9.18205H40.0419V8.17033H39.0301ZM39.0301 6.11355V5.10183H38.0184V6.11355H39.0301ZM41.0869 6.11355V7.12528H42.0987V6.11355H41.0869ZM41.0869 4.05678H42.0987V3.04505H41.0869V4.05678ZM36.9734 2V0.988274H35.9616V2H36.9734ZM47.2573 2H48.269V0.988274H47.2573V2ZM47.2573 4.05678H46.2456V5.0685H47.2573V4.05678ZM49.3141 4.05678H50.3258V3.04505H49.3141V4.05678ZM49.3141 22.5678H48.3023V23.5795H49.3141V22.5678ZM85.4072 12.2839V11.2722H84.3954V12.2839H85.4072ZM85.4072 14.3407V15.3524H86.4189V14.3407H85.4072ZM83.3504 14.3407V13.3289H82.3387V14.3407H83.3504ZM83.3504 16.3974V17.4092H84.3621V16.3974H83.3504ZM81.2936 16.3974V15.3857H80.2819V16.3974H81.2936ZM81.2936 28.7381V29.7498H82.3053V28.7381H81.2936ZM79.2368 28.7381V27.7264H78.2251V28.7381H79.2368ZM79.2368 30.7949V31.8066H80.2485V30.7949H79.2368ZM71.0097 30.7949H69.998V31.8066H71.0097V30.7949ZM71.0097 28.7381H72.0214V27.7264H71.0097V28.7381ZM68.9529 28.7381H67.9412V29.7498H68.9529V28.7381ZM68.9529 16.3974H69.9646V15.3857H68.9529V16.3974ZM66.8961 16.3974H65.8844V17.4092H66.8961V16.3974ZM66.8961 14.3407H67.9078V13.3289H66.8961V14.3407ZM64.8393 14.3407H63.8276V15.3524H64.8393V14.3407ZM64.8393 12.2839H65.8511V11.2722H64.8393V12.2839ZM62.7826 12.2839H61.7708V13.2956H62.7826V12.2839ZM62.7826 10.2271H63.7943V9.21538H62.7826V10.2271ZM60.7258 10.2271H59.714V11.2388H60.7258V10.2271ZM60.7258 4.05678V3.04505H59.714V4.05678H60.7258ZM62.7826 8.17033H61.7708V9.18205H62.7826V8.17033ZM64.8393 8.17033V9.18205H65.8511V8.17033H64.8393ZM64.8393 6.11355V5.10183H63.8276V6.11355H64.8393ZM66.8961 6.11355V7.12528H67.9078V6.11355H66.8961ZM66.8961 4.05678H67.9078V3.04505H66.8961V4.05678ZM62.7826 2V0.988274H61.7708V2H62.7826ZM71.0097 2H72.0214V0.988274H71.0097V2ZM71.0097 4.05678H69.998V5.0685H71.0097V4.05678ZM73.0665 4.05678H74.0782V3.04505H73.0665V4.05678ZM73.0665 6.11355H72.0547V7.12528H73.0665V6.11355ZM77.18 6.11355V7.12528H78.1918V6.11355H77.18ZM77.18 4.05678V3.04505H76.1683V4.05678H77.18ZM79.2368 4.05678V5.0685H80.2485V4.05678H79.2368ZM79.2368 2V0.988274H78.2251V2H79.2368ZM87.464 2H88.4757V0.988274H87.464V2ZM87.464 4.05678H86.4522V5.0685H87.464V4.05678ZM89.5207 4.05678H90.5325V3.04505H89.5207V4.05678ZM89.5207 10.2271V11.2388H90.5325V10.2271H89.5207ZM87.464 10.2271V9.21538H86.4522V10.2271H87.464ZM87.464 12.2839V13.2956H88.4757V12.2839H87.464ZM120.381 6.11355H119.369V7.12528H120.381V6.11355ZM122.437 6.11355H123.449V5.10183H122.437V6.11355ZM122.437 18.4542V19.4659H123.449V18.4542H122.437ZM120.381 18.4542V17.4425H119.369V18.4542H120.381ZM120.381 20.511V21.5227H121.392V20.511H120.381ZM118.324 20.511V19.4993H117.312V20.511H118.324ZM118.324 22.5678V23.5795H119.335V22.5678H118.324ZM108.04 22.5678V21.556H107.028V22.5678H108.04ZM108.04 28.7381V29.7498H109.052V28.7381H108.04ZM105.983 28.7381V27.7264H104.971V28.7381H105.983ZM105.983 30.7949V31.8066H106.995V30.7949H105.983ZM95.6991 30.7949H94.6874V31.8066H95.6991V30.7949ZM95.6991 28.7381H96.7109V27.7264H95.6991V28.7381ZM93.6423 28.7381H92.6306V29.7498H93.6423V28.7381ZM93.6423 4.05678V3.04505H92.6306V4.05678H93.6423ZM95.6991 8.17033H94.6874V9.18205H95.6991V8.17033ZM97.7559 8.17033V9.18205H98.7676V8.17033H97.7559ZM97.7559 6.11355V5.10183H96.7442V6.11355H97.7559ZM99.8127 6.11355V7.12528H100.824V6.11355H99.8127ZM99.8127 4.05678H100.824V3.04505H99.8127V4.05678ZM95.6991 2V0.988274H94.6874V2H95.6991ZM118.324 2H119.335V0.988274H118.324V2ZM118.324 4.05678H117.312V5.0685H118.324V4.05678ZM120.381 4.05678H121.392V3.04505H120.381V4.05678ZM108.04 8.17033V7.1586H107.028V8.17033H108.04ZM108.04 16.3974H107.028V17.4092H108.04V16.3974ZM112.153 16.3974V17.4092H113.165V16.3974H112.153ZM112.153 8.17033H113.165V7.1586H112.153V8.17033ZM153.297 4.05678H152.285V5.0685H153.297V4.05678ZM155.354 4.05678H156.366V3.04505H155.354V4.05678ZM155.354 28.7381V29.7498H156.366V28.7381H155.354ZM153.297 28.7381V27.7264H152.285V28.7381H153.297ZM153.297 30.7949V31.8066H154.309V30.7949H153.297ZM147.127 30.7949H146.115V31.8066H147.127V30.7949ZM147.127 28.7381H148.138V27.7264H147.127V28.7381ZM145.07 28.7381H144.058V29.7498H145.07V28.7381ZM145.07 18.4542H146.082V17.4425H145.07V18.4542ZM140.956 18.4542V17.4425H139.945V18.4542H140.956ZM140.956 28.7381V29.7498H141.968V28.7381H140.956ZM138.9 28.7381V27.7264H137.888V28.7381H138.9ZM138.9 30.7949V31.8066H139.911V30.7949H138.9ZM128.616 30.7949H127.604V31.8066H128.616V30.7949ZM128.616 28.7381H129.627V27.7264H128.616V28.7381ZM126.559 28.7381H125.547V29.7498H126.559V28.7381ZM126.559 4.05678V3.04505H125.547V4.05678H126.559ZM128.616 8.17033H127.604V9.18205H128.616V8.17033ZM130.673 8.17033V9.18205H131.684V8.17033H130.673ZM130.673 6.11355V5.10183H129.661V6.11355H130.673ZM132.729 6.11355V7.12528H133.741V6.11355H132.729ZM132.729 4.05678H133.741V3.04505H132.729V4.05678ZM128.616 2V0.988274H127.604V2H128.616ZM138.9 2H139.911V0.988274H138.9V2ZM138.9 4.05678H137.888V5.0685H138.9V4.05678ZM140.956 4.05678H141.968V3.04505H140.956V4.05678ZM140.956 12.2839H139.945V13.2956H140.956V12.2839ZM145.07 12.2839V13.2956H146.082V12.2839H145.07ZM145.07 4.05678V3.04505H144.058V4.05678H145.07ZM147.127 4.05678V5.0685H148.138V4.05678H147.127ZM147.127 2V0.988274H146.115V2H147.127ZM153.297 2H154.309V0.988274H153.297V2ZM27.7265 2V4.05678H29.7499V2H27.7265ZM28.7382 5.0685H30.795V3.04505H28.7382V5.0685ZM29.7833 4.05678V6.11355H31.8067V4.05678H29.7833ZM30.795 5.10183H28.7382V7.12528H30.795V5.10183ZM27.7265 6.11355V8.17033H29.7499V6.11355H27.7265ZM28.7382 7.1586H16.3975V9.18205H28.7382V7.1586ZM15.3858 8.17033V22.5678H17.4092V8.17033H15.3858ZM16.3975 23.5795H22.5678V21.556H16.3975V23.5795ZM23.5796 22.5678V18.4542H21.5561V22.5678H23.5796ZM22.5678 17.4425H20.5111V19.4659H22.5678V17.4425ZM21.5228 18.4542V16.3974H19.4993V18.4542H21.5228ZM20.5111 15.3857H18.4543V17.4092H20.5111V15.3857ZM19.466 16.3974V14.3407H17.4425V16.3974H19.466ZM18.4543 15.3524H20.5111V13.3289H18.4543V15.3524ZM21.5228 14.3407V12.2839H19.4993V14.3407H21.5228ZM20.5111 13.2956H28.7382V11.2722H20.5111V13.2956ZM27.7265 12.2839V14.3407H29.7499V12.2839H27.7265ZM28.7382 15.3524H30.795V13.3289H28.7382V15.3524ZM29.7833 14.3407V26.6813H31.8067V14.3407H29.7833ZM30.795 25.6696H28.7382V27.693H30.795V25.6696ZM27.7265 26.6813V28.7381H29.7499V26.6813H27.7265ZM28.7382 27.7264H26.6814V29.7498H28.7382V27.7264ZM25.6697 28.7381V30.7949H27.6931V28.7381H25.6697ZM26.6814 29.7831H6.11357V31.8066H26.6814V29.7831ZM7.12529 30.7949V28.7381H5.10184V30.7949H7.12529ZM6.11357 27.7264H4.05678V29.7498H6.11357V27.7264ZM5.06851 28.7381V26.6813H3.04506V28.7381H5.06851ZM4.05678 25.6696H2V27.693H4.05678V25.6696ZM3.01173 26.6813V6.11355H0.988274V26.6813H3.01173ZM2 7.12528H4.05678V5.10183H2V7.12528ZM3.04506 6.11355V8.17033H5.06851V6.11355H3.04506ZM4.05678 9.18205H6.11357V7.1586H4.05678V9.18205ZM7.12529 8.17033V6.11355H5.10184V8.17033H7.12529ZM6.11357 7.12528H8.17035V5.10183H6.11357V7.12528ZM9.18208 6.11355V4.05678H7.15863V6.11355H9.18208ZM8.17035 3.04505H6.11357V5.0685H8.17035V3.04505ZM7.12529 4.05678V2H5.10184V4.05678H7.12529ZM6.11357 3.01173H28.7382V0.988274H6.11357V3.01173ZM58.5863 22.5678V24.6245H60.6097V22.5678H58.5863ZM59.598 25.6363H61.6548V23.6128H59.598V25.6363ZM60.643 24.6245V28.7381H62.6665V24.6245H60.643ZM61.6548 27.7264H59.598V29.7498H61.6548V27.7264ZM58.5863 28.7381V30.7949H60.6097V28.7381H58.5863ZM59.598 29.7831H36.9734V31.8066H59.598V29.7831ZM37.9851 30.7949V28.7381H35.9616V30.7949H37.9851ZM36.9734 27.7264H34.9166V29.7498H36.9734V27.7264ZM35.9283 28.7381V4.05678H33.9049V28.7381H35.9283ZM34.9166 5.0685H36.9734V3.04505H34.9166V5.0685ZM35.9616 4.05678V8.17033H37.9851V4.05678H35.9616ZM36.9734 9.18205H39.0301V7.1586H36.9734V9.18205ZM40.0419 8.17033V6.11355H38.0184V8.17033H40.0419ZM39.0301 7.12528H41.0869V5.10183H39.0301V7.12528ZM42.0987 6.11355V4.05678H40.0752V6.11355H42.0987ZM41.0869 3.04505H36.9734V5.0685H41.0869V3.04505ZM37.9851 4.05678V2H35.9616V4.05678H37.9851ZM36.9734 3.01173H47.2573V0.988274H36.9734V3.01173ZM46.2456 2V4.05678H48.269V2H46.2456ZM47.2573 5.0685H49.3141V3.04505H47.2573V5.0685ZM48.3023 4.05678V22.5678H50.3258V4.05678H48.3023ZM49.3141 23.5795H59.598V21.556H49.3141V23.5795ZM84.3954 12.2839V14.3407H86.4189V12.2839H84.3954ZM85.4072 13.3289H83.3504V15.3524H85.4072V13.3289ZM82.3387 14.3407V16.3974H84.3621V14.3407H82.3387ZM83.3504 15.3857H81.2936V17.4092H83.3504V15.3857ZM80.2819 16.3974V28.7381H82.3053V16.3974H80.2819ZM81.2936 27.7264H79.2368V29.7498H81.2936V27.7264ZM78.2251 28.7381V30.7949H80.2485V28.7381H78.2251ZM79.2368 29.7831H71.0097V31.8066H79.2368V29.7831ZM72.0214 30.7949V28.7381H69.998V30.7949H72.0214ZM71.0097 27.7264H68.9529V29.7498H71.0097V27.7264ZM69.9646 28.7381V16.3974H67.9412V28.7381H69.9646ZM68.9529 15.3857H66.8961V17.4092H68.9529V15.3857ZM67.9078 16.3974V14.3407H65.8844V16.3974H67.9078ZM66.8961 13.3289H64.8393V15.3524H66.8961V13.3289ZM65.8511 14.3407V12.2839H63.8276V14.3407H65.8511ZM64.8393 11.2722H62.7826V13.2956H64.8393V11.2722ZM63.7943 12.2839V10.2271H61.7708V12.2839H63.7943ZM62.7826 9.21538H60.7258V11.2388H62.7826V9.21538ZM61.7375 10.2271V4.05678H59.714V10.2271H61.7375ZM60.7258 5.0685H62.7826V3.04505H60.7258V5.0685ZM61.7708 4.05678V8.17033H63.7943V4.05678H61.7708ZM62.7826 9.18205H64.8393V7.1586H62.7826V9.18205ZM65.8511 8.17033V6.11355H63.8276V8.17033H65.8511ZM64.8393 7.12528H66.8961V5.10183H64.8393V7.12528ZM67.9078 6.11355V4.05678H65.8844V6.11355H67.9078ZM66.8961 3.04505H62.7826V5.0685H66.8961V3.04505ZM63.7943 4.05678V2H61.7708V4.05678H63.7943ZM62.7826 3.01173H71.0097V0.988274H62.7826V3.01173ZM69.998 2V4.05678H72.0214V2H69.998ZM71.0097 5.0685H73.0665V3.04505H71.0097V5.0685ZM72.0547 4.05678V6.11355H74.0782V4.05678H72.0547ZM73.0665 7.12528H77.18V5.10183H73.0665V7.12528ZM78.1918 6.11355V4.05678H76.1683V6.11355H78.1918ZM77.18 5.0685H79.2368V3.04505H77.18V5.0685ZM80.2485 4.05678V2H78.2251V4.05678H80.2485ZM79.2368 3.01173H87.464V0.988274H79.2368V3.01173ZM86.4522 2V4.05678H88.4757V2H86.4522ZM87.464 5.0685H89.5207V3.04505H87.464V5.0685ZM88.509 4.05678V10.2271H90.5325V4.05678H88.509ZM89.5207 9.21538H87.464V11.2388H89.5207V9.21538ZM86.4522 10.2271V12.2839H88.4757V10.2271H86.4522ZM87.464 11.2722H85.4072V13.2956H87.464V11.2722ZM120.381 7.12528H122.437V5.10183H120.381V7.12528ZM121.426 6.11355V18.4542H123.449V6.11355H121.426ZM122.437 17.4425H120.381V19.4659H122.437V17.4425ZM119.369 18.4542V20.511H121.392V18.4542H119.369ZM120.381 19.4993H118.324V21.5227H120.381V19.4993ZM117.312 20.511V22.5678H119.335V20.511H117.312ZM118.324 21.556H108.04V23.5795H118.324V21.556ZM107.028 22.5678V28.7381H109.052V22.5678H107.028ZM108.04 27.7264H105.983V29.7498H108.04V27.7264ZM104.971 28.7381V30.7949H106.995V28.7381H104.971ZM105.983 29.7831H95.6991V31.8066H105.983V29.7831ZM96.7109 30.7949V28.7381H94.6874V30.7949H96.7109ZM95.6991 27.7264H93.6423V29.7498H95.6991V27.7264ZM94.6541 28.7381V4.05678H92.6306V28.7381H94.6541ZM93.6423 5.0685H95.6991V3.04505H93.6423V5.0685ZM94.6874 4.05678V8.17033H96.7109V4.05678H94.6874ZM95.6991 9.18205H97.7559V7.1586H95.6991V9.18205ZM98.7676 8.17033V6.11355H96.7442V8.17033H98.7676ZM97.7559 7.12528H99.8127V5.10183H97.7559V7.12528ZM100.824 6.11355V4.05678H98.801V6.11355H100.824ZM99.8127 3.04505H95.6991V5.0685H99.8127V3.04505ZM96.7109 4.05678V2H94.6874V4.05678H96.7109ZM95.6991 3.01173H118.324V0.988274H95.6991V3.01173ZM117.312 2V4.05678H119.335V2H117.312ZM118.324 5.0685H120.381V3.04505H118.324V5.0685ZM119.369 4.05678V6.11355H121.392V4.05678H119.369ZM107.028 8.17033V16.3974H109.052V8.17033H107.028ZM108.04 17.4092H112.153V15.3857H108.04V17.4092ZM113.165 16.3974V8.17033H111.142V16.3974H113.165ZM112.153 7.1586H108.04V9.18205H112.153V7.1586ZM153.297 5.0685H155.354V3.04505H153.297V5.0685ZM154.342 4.05678V28.7381H156.366V4.05678H154.342ZM155.354 27.7264H153.297V29.7498H155.354V27.7264ZM152.285 28.7381V30.7949H154.309V28.7381H152.285ZM153.297 29.7831H147.127V31.8066H153.297V29.7831ZM148.138 30.7949V28.7381H146.115V30.7949H148.138ZM147.127 27.7264H145.07V29.7498H147.127V27.7264ZM146.082 28.7381V18.4542H144.058V28.7381H146.082ZM145.07 17.4425H140.956V19.4659H145.07V17.4425ZM139.945 18.4542V28.7381H141.968V18.4542H139.945ZM140.956 27.7264H138.9V29.7498H140.956V27.7264ZM137.888 28.7381V30.7949H139.911V28.7381H137.888ZM138.9 29.7831H128.616V31.8066H138.9V29.7831ZM129.627 30.7949V28.7381H127.604V30.7949H129.627ZM128.616 27.7264H126.559V29.7498H128.616V27.7264ZM127.571 28.7381V4.05678H125.547V28.7381H127.571ZM126.559 5.0685H128.616V3.04505H126.559V5.0685ZM127.604 4.05678V8.17033H129.627V4.05678H127.604ZM128.616 9.18205H130.673V7.1586H128.616V9.18205ZM131.684 8.17033V6.11355H129.661V8.17033H131.684ZM130.673 7.12528H132.729V5.10183H130.673V7.12528ZM133.741 6.11355V4.05678H131.718V6.11355H133.741ZM132.729 3.04505H128.616V5.0685H132.729V3.04505ZM129.627 4.05678V2H127.604V4.05678H129.627ZM128.616 3.01173H138.9V0.988274H128.616V3.01173ZM137.888 2V4.05678H139.911V2H137.888ZM138.9 5.0685H140.956V3.04505H138.9V5.0685ZM139.945 4.05678V12.2839H141.968V4.05678H139.945ZM140.956 13.2956H145.07V11.2722H140.956V13.2956ZM146.082 12.2839V4.05678H144.058V12.2839H146.082ZM145.07 5.0685H147.127V3.04505H145.07V5.0685ZM148.138 4.05678V2H146.115V4.05678H148.138ZM147.127 3.01173H153.297V0.988274H147.127V3.01173ZM152.285 2V4.05678H154.309V2H152.285Z" fill="black" mask="url(#path-2-outside-1_207_2930)"/>
</svg>