<svg width="24" height="22" viewBox="0 0 24 22" fill="none" xmlns="http://www.w3.org/2000/svg">
<path d="M9.04083 20.8164C9.15637 18.7596 9.24338 16.8979 9.38317 15.0407C9.40172 14.7962 9.65277 14.5351 9.85248 14.3461C13.0078 11.3382 16.1702 8.33936 19.3398 5.34799C19.5124 5.18447 19.7634 5.11396 20.0502 4.96094C19.3227 4.38037 18.9875 4.76442 18.6608 4.97894C16.2772 6.54814 13.9022 8.13234 11.5243 9.71203C9.92665 10.7742 8.33759 11.8528 6.72285 12.8849C6.48321 13.0379 6.08951 13.0814 5.81706 12.9989C4.23227 12.5114 2.65177 11.9998 1.09266 11.4297C0.688974 11.2827 0.362318 10.8972 0 10.6226C0.346627 10.2836 0.637622 9.79754 1.04701 9.62802C5.54746 7.75729 10.065 5.93756 14.5783 4.10284C17.0874 3.08271 19.588 2.03708 22.1142 1.06346C22.5464 0.89694 23.1684 0.875937 23.5592 1.08446C24.0927 1.3695 24.0399 2.05058 23.923 2.63265C22.7133 8.6304 21.5037 14.6281 20.2884 20.6259C20.0059 22.0211 19.1886 22.3346 18.0645 21.475C16.3086 20.1308 14.564 18.7702 12.8067 17.411C11.5214 18.4401 10.6413 19.9283 9.04083 20.8164Z" fill="white" fill-opacity="0.3"/>
</svg>
