<svg width="47" height="48" viewBox="0 0 47 48" fill="none" xmlns="http://www.w3.org/2000/svg">
<path d="M46.5 24C46.5 36.9887 36.1927 47.5 23.5 47.5C10.8073 47.5 0.5 36.9887 0.5 24C0.5 11.0113 10.8073 0.5 23.5 0.5C36.1927 0.5 46.5 11.0113 46.5 24Z" fill="#151515" stroke="#0E0E0E"/>
<path d="M30.998 34.9302C29.7039 34.9302 28.4941 34.8865 27.2902 34.9486C26.7275 34.9785 26.4235 34.7415 26.1255 34.2122C24.9902 32.2076 23.8118 30.2353 22.649 28.2537C22.5902 28.1525 22.5216 28.0604 22.4314 27.9269C21.8157 28.7623 21.2157 29.5748 20.6196 30.3918C19.5824 31.8094 18.5529 33.234 17.502 34.6379C17.3843 34.7944 17.1588 34.8842 16.9725 34.9164C16.6902 34.9624 16.4 34.9279 16 34.9279C17.9863 32.2099 19.9137 29.5748 21.8608 26.9097C19.9275 23.614 18 20.3253 16.0431 16.9859C16.1824 16.9675 16.2784 16.9445 16.3745 16.9445C17.6255 16.9445 18.8765 16.9537 20.1255 16.9353C20.3863 16.9306 20.5216 17.0457 20.6608 17.2851C21.8667 19.3633 23.0863 21.4323 24.3235 23.5427C24.8569 22.8177 25.3784 22.1112 25.898 21.4046C26.9275 19.9985 27.951 18.5877 28.9902 17.193C29.0863 17.0641 29.2667 16.9744 29.4157 16.956C29.7275 16.9191 30.0451 16.9445 30.4667 16.9445C28.5843 19.5152 26.7588 22.0145 24.9098 24.5415C26.9235 27.9776 28.9333 31.4067 31 34.9325L30.998 34.9302ZM29.0569 33.7358C28.2196 32.3066 27.4294 30.9625 26.6412 29.6162C24.4588 25.8924 22.2765 22.1664 20.0902 18.445C20.0216 18.3276 19.9137 18.1596 19.8196 18.155C19.2255 18.1274 18.6294 18.1412 17.9745 18.1412C18.0549 18.2862 18.0882 18.3506 18.1235 18.4105C19.3137 20.4449 20.5059 22.4794 21.698 24.5116C23.4333 27.4735 25.1686 30.4355 26.9118 33.3905C26.998 33.5355 27.1549 33.7104 27.2863 33.7196C27.849 33.7565 28.4118 33.7358 29.0569 33.7358Z" fill="white" fill-opacity="0.3"/>
</svg>
