<svg width="1223" height="300" viewBox="0 0 1223 300" fill="none" xmlns="http://www.w3.org/2000/svg">
<g clip-path="url(#clip0_1_3)">
<path d="M959.173 123.459V238.237H941.136V110.452L819.502 0V197.529L909.581 279.326V324.168L952.344 363H1223L959.173 123.459Z" fill="#5C230F" fill-opacity="0.7"/>
<path d="M467.103 0H330.514V37.6866L421.643 120.438H469.169V159.81L692.895 363H866.818L467.103 0Z" fill="#5C230F" fill-opacity="0.7"/>
<path d="M103.671 79.5394V163.786H83.1124V123.078H64.4452L-74 0V123.078L101.709 282.602H151.197L239.699 363H415.829L103.671 79.5394Z" fill="#5C230F" fill-opacity="0.7"/>
<path d="M644.318 1.49475H556.306L692.474 124H779.226L644.318 1.49475ZM564.851 4.67506H642.882L770.785 120.82H693.91L564.851 4.67506Z" fill="#5C230F" fill-opacity="0.7"/>
<path d="M152.843 38.2591V0H60.0674L240.015 163.404H330.514V202.617H287.33L463.951 363H597.212L241.696 38.2591H152.843ZM465.421 359.82L295.806 205.798H334.016V160.224H241.486L68.5429 3.18031H149.376V41.4394H240.26L588.842 359.82H465.421Z" fill="#5C230F" fill-opacity="0.7"/>
</g>
<defs>
<clipPath id="clip0_1_3">
<rect width="1297" height="363" fill="white" transform="translate(-74)"/>
</clipPath>
</defs>
</svg>
