<svg width="169" height="48" viewBox="0 0 169 48" fill="none" xmlns="http://www.w3.org/2000/svg">
<mask id="mask0_1_189" style="mask-type:alpha" maskUnits="userSpaceOnUse" x="0" y="0" width="169" height="48">
<path d="M0 0.938721H169V37.9716H43.5V47.9805H0V0.938721Z" fill="#1F1C1C"/>
</mask>
<g mask="url(#mask0_1_189)">
<path d="M21.4073 11.7009C20.9381 11.7456 20.4466 11.835 19.9551 11.969V5.60144L4.11429 14.8289V33.172L9.3871 30.1111C9.5435 30.3122 9.6999 30.5132 9.87864 30.692L9.94566 30.759L10.3925 31.2059L4.82925 34.4455L20.67 43.5836L36.5108 34.4455L29.0708 30.1334C29.3836 29.7536 29.674 29.3738 29.9645 28.9716L37.2481 33.1943V14.7842L21.4073 5.60144V11.7009ZM29.674 17.9121C30.9252 19.1633 31.3497 21.1071 30.8805 23.4307C30.389 25.8437 28.9591 28.3237 26.8812 30.4015C24.8034 32.4794 22.3234 33.9093 19.9104 34.4008C17.6091 34.87 15.643 34.4455 14.3918 33.1943L13.6992 32.5017C14.012 32.5464 14.3471 32.5464 14.6599 32.5464C17.7879 32.5464 21.452 30.9378 24.4236 27.9439C27.7302 24.6372 29.3389 20.5038 28.9591 17.1972L29.674 17.9121ZM26.2333 14.449C28.892 17.1078 27.6409 22.7157 23.4181 26.9161C19.1954 31.1388 13.6098 32.39 10.9511 29.7313C8.29232 27.0725 9.5435 21.4646 13.7662 17.2642C16.492 14.5384 19.7763 13.0638 22.4798 13.0638C23.9767 13.0638 25.2949 13.5107 26.2333 14.449Z" fill="white"/>
<path d="M62.5844 31.3176C63.3664 30.4909 63.9473 29.4185 64.3048 28.1449L59.9257 26.9161C59.7022 27.9439 59.2777 28.7035 58.6521 29.195C58.0266 29.6866 57.2669 29.9323 56.3732 29.9323C55.4125 29.9323 54.6082 29.7089 53.9826 29.2844C53.3346 28.8599 52.8655 28.212 52.5303 27.3406C52.2175 26.4693 52.0611 25.4192 52.0611 24.168C52.0611 22.8945 52.2399 21.8444 52.575 20.9954C52.9101 20.1464 53.424 19.4984 54.0496 19.0739C54.6975 18.6494 55.4572 18.426 56.3285 18.426C57.2222 18.426 57.9595 18.6494 58.5628 19.0739C59.1437 19.4984 59.5682 20.3028 59.8363 21.4646L64.0814 19.7442C63.7686 18.56 63.2323 17.5993 62.4727 16.862C61.7131 16.1247 60.797 15.5662 59.7246 15.1863C58.6298 14.8289 57.4457 14.6278 56.1498 14.6278C54.2954 14.6278 52.6867 15.0076 51.3238 15.7672C49.9609 16.5269 48.9108 17.6217 48.1735 19.0292C47.4362 20.4368 47.0788 22.1572 47.0788 24.168C47.0788 26.1788 47.4362 27.8768 48.1735 29.3068C48.9108 30.7367 49.9609 31.8091 51.3238 32.5688C52.6867 33.3284 54.3177 33.7082 56.1721 33.7082C57.4903 33.7082 58.6745 33.5071 59.7693 33.1273C60.864 32.7698 61.8024 32.1666 62.5844 31.3176Z" fill="white"/>
<path d="M83.2512 29.3068C83.9885 27.8768 84.3459 26.1788 84.3459 24.168C84.3459 22.1572 83.9885 20.4592 83.2512 19.0292C82.5139 17.5993 81.4861 16.5269 80.1232 15.7672C78.7603 15.0076 77.1517 14.6278 75.2749 14.6278C73.3982 14.6278 71.7895 15.0076 70.4266 15.7672C69.0637 16.5269 68.0136 17.6217 67.2763 19.0292C66.539 20.4368 66.1815 22.1572 66.1815 24.168C66.1815 26.1788 66.539 27.8768 67.2763 29.3068C68.0136 30.7367 69.0637 31.8091 70.4266 32.5688C71.7895 33.3284 73.4205 33.7082 75.2749 33.7082C77.1293 33.7082 78.7603 33.3284 80.1232 32.5688C81.4861 31.8314 82.5362 30.7367 83.2512 29.3068ZM78.9391 27.363C78.6263 28.212 78.1571 28.8599 77.5538 29.3068C76.9506 29.7313 76.191 29.9547 75.2973 29.9547C74.4036 29.9547 73.6439 29.7313 73.0183 29.3068C72.3927 28.8822 71.9236 28.2343 71.6108 27.363C71.298 26.4916 71.1416 25.4415 71.1416 24.1903C71.1416 22.9168 71.298 21.8667 71.6108 21.0177C71.9236 20.1687 72.3927 19.5208 73.0183 19.0963C73.6439 18.6718 74.4036 18.4483 75.2973 18.4483C76.191 18.4483 76.9506 18.6718 77.5538 19.0963C78.1571 19.5208 78.6263 20.1687 78.9391 21.0177C79.2519 21.8667 79.4083 22.9392 79.4083 24.1903C79.4083 25.4415 79.2519 26.4916 78.9391 27.363Z" fill="white"/>
<path d="M101.773 29.7089H92.4786V14.9406H87.6526V33.4401H101.773V29.7089Z" fill="white"/>
<path d="M119.334 29.7089H109.369V25.9331H117.011V22.4253H109.369V18.6718H118.977V14.9406H104.543V33.4401H119.334V29.7089Z" fill="white"/>
<path d="M138.929 33.4401V14.9406H134.683V24.2797L134.795 27.6981H134.75L133.343 24.95L127.601 14.9406H122.239V33.4401H126.506V24.101L126.394 20.6826H126.417L127.824 23.4307L133.589 33.4401H138.929Z" fill="white"/>
<path d="M157.54 17.3312C155.998 15.7226 153.786 14.9182 150.882 14.9182H143.017V33.4401H150.882C153.786 33.4401 155.998 32.6358 157.54 31.0271C159.081 29.4185 159.863 27.1396 159.863 24.1903C159.863 21.2188 159.081 18.9622 157.54 17.3312ZM153.853 28.3907C153.138 29.3291 151.999 29.7983 150.413 29.7983H147.865V18.5824H150.413C151.976 18.5824 153.138 19.0516 153.853 19.99C154.568 20.9284 154.926 22.3359 154.926 24.1903C154.926 26.0448 154.568 27.43 153.853 28.3907Z" fill="white"/>
<path d="M57.2222 43.0697C57.5797 42.9803 57.8702 42.8016 58.0489 42.5335C58.25 42.2654 58.3394 41.9526 58.3394 41.6174C58.3394 41.0589 58.1606 40.5897 57.7808 40.2545C57.4233 39.9194 56.8424 39.763 56.0381 39.763H53.6475V46.4881H56.0381C56.8424 46.4881 57.4457 46.3093 57.8702 45.9742C58.2947 45.6391 58.5181 45.1699 58.5181 44.6113C58.5181 44.2538 58.4064 43.9187 58.1606 43.6282C57.9372 43.3155 57.6244 43.1367 57.2222 43.0697ZM54.4741 40.5226H56.0604C57.0212 40.5226 57.4904 40.8801 57.4904 41.6174C57.4904 42.3547 57.0212 42.7122 56.0604 42.7122H54.4741V40.5226ZM57.334 45.4156C57.1105 45.6167 56.7307 45.7061 56.2615 45.7061H54.4965V43.4718H56.2615C56.7531 43.4718 57.1105 43.5612 57.334 43.7623C57.5574 43.9634 57.6914 44.2315 57.6914 44.589C57.6691 44.9464 57.5574 45.2146 57.334 45.4156Z" fill="white"/>
<path d="M60.9981 41.3716H60.1714V46.4657H60.9981V41.3716Z" fill="white"/>
<path d="M60.5736 39.1821C60.3948 39.1821 60.2384 39.2268 60.1267 39.3609C60.015 39.4726 59.948 39.629 59.948 39.8077C59.948 39.9865 59.9927 40.1429 60.1267 40.2546C60.2384 40.3663 60.3948 40.4333 60.5736 40.4333C60.7523 40.4333 60.9087 40.3886 61.0204 40.2546C61.1321 40.1429 61.1992 39.9865 61.1992 39.8077C61.1992 39.629 61.1545 39.4726 61.0204 39.3609C60.9087 39.2268 60.7747 39.1821 60.5736 39.1821Z" fill="white"/>
<path d="M65.3549 45.7061C65.2208 45.7732 65.0421 45.8178 64.841 45.8178C64.6176 45.8178 64.4388 45.7508 64.2824 45.6391C64.1484 45.5274 64.059 45.3263 64.059 45.0805V42.0867H65.9134V41.3717H64.0813V39.9194L63.2547 40.1429V41.3717H62.2269V42.0643H63.2547V45.1922C63.2547 45.5274 63.3217 45.7731 63.4558 45.9742C63.5898 46.1753 63.7686 46.3094 63.992 46.4211C64.2154 46.5104 64.4612 46.5551 64.7069 46.5551C64.975 46.5551 65.2208 46.5105 65.4442 46.4434C65.6677 46.3541 65.8464 46.2423 66.0028 46.1083L65.7123 45.4157C65.6453 45.5497 65.5113 45.6391 65.3549 45.7061Z" fill="white"/>
<path d="M70.4266 45.3933C70.2925 45.5497 70.1361 45.6614 69.9574 45.7508C69.7787 45.8401 69.5329 45.8625 69.2648 45.8625C68.9297 45.8625 68.6392 45.7954 68.3934 45.639C68.1477 45.4827 67.9689 45.2592 67.8349 44.9688C67.7008 44.6783 67.6338 44.3209 67.6338 43.9187C67.6338 43.5165 67.7008 43.159 67.8349 42.8686C67.9689 42.5781 68.1477 42.3547 68.3934 42.1983C68.6392 42.0419 68.9297 41.9749 69.2648 41.9749C69.6223 41.9749 69.9127 42.0643 70.1361 42.243C70.3596 42.4217 70.516 42.6675 70.6277 43.0026L71.4097 42.6452C71.2979 42.3771 71.1192 42.1313 70.9405 41.9302C70.7394 41.7291 70.516 41.5727 70.2479 41.461C69.9797 41.3493 69.667 41.3046 69.3095 41.3046C68.8403 41.3046 68.4158 41.4163 68.036 41.6174C67.6561 41.8185 67.3657 42.1313 67.1646 42.5335C66.9635 42.9356 66.8518 43.4048 66.8518 43.9634C66.8518 44.5219 66.9635 44.9911 67.1646 45.3933C67.3657 45.7955 67.6561 46.0859 68.036 46.3093C68.4158 46.5104 68.8403 46.6221 69.3095 46.6221C69.667 46.6221 69.9798 46.5551 70.2702 46.4434C70.5607 46.3317 70.7841 46.1529 70.9852 45.9295C71.1862 45.7061 71.3426 45.438 71.4543 45.1252L70.6947 44.8571C70.6277 45.0358 70.5383 45.2369 70.4266 45.3933Z" fill="white"/>
<path d="M76.258 41.5951C75.8782 41.394 75.4537 41.2823 74.9845 41.2823C74.5153 41.2823 74.0908 41.394 73.7109 41.5951C73.3311 41.7962 73.0407 42.109 72.8396 42.5111C72.6385 42.9133 72.5268 43.3825 72.5268 43.941C72.5268 44.4996 72.6385 44.9688 72.8396 45.3709C73.0407 45.7731 73.3311 46.0636 73.7109 46.287C74.0908 46.4881 74.5153 46.5998 74.9845 46.5998C75.476 46.5998 75.9005 46.4881 76.258 46.287C76.6378 46.0859 76.9283 45.7731 77.1293 45.3709C77.3304 44.9688 77.4421 44.4996 77.4421 43.941C77.4421 43.3825 77.3304 42.9133 77.1293 42.5111C76.9283 42.109 76.6378 41.7962 76.258 41.5951ZM76.4367 44.9688C76.3027 45.2592 76.1239 45.4827 75.8782 45.6391C75.6324 45.7955 75.3419 45.8625 74.9845 45.8625C74.627 45.8625 74.3365 45.7955 74.0908 45.6391C73.845 45.4827 73.6663 45.2592 73.5322 44.9688C73.3981 44.6783 73.3311 44.3209 73.3311 43.9187C73.3311 43.5165 73.3981 43.1591 73.5322 42.8686C73.6663 42.5781 73.845 42.3547 74.0908 42.1983C74.3365 42.0419 74.627 41.9749 74.9845 41.9749C75.3419 41.9749 75.6324 42.0419 75.8782 42.1983C76.1239 42.3547 76.3027 42.5781 76.4367 42.8686C76.5708 43.1591 76.6378 43.4942 76.6378 43.9187C76.6378 44.3209 76.5708 44.6783 76.4367 44.9688Z" fill="white"/>
<path d="M79.3859 39.1821C79.2072 39.1821 79.0508 39.2268 78.9391 39.3609C78.8274 39.4726 78.7603 39.629 78.7603 39.8077C78.7603 39.9865 78.805 40.1429 78.9391 40.2546C79.0508 40.3663 79.2072 40.4333 79.3859 40.4333C79.5647 40.4333 79.7211 40.3886 79.8328 40.2546C79.9445 40.1429 80.0115 39.9865 80.0115 39.8077C80.0115 39.629 79.9668 39.4726 79.8328 39.3609C79.7211 39.2268 79.587 39.1821 79.3859 39.1821Z" fill="white"/>
<path d="M79.7881 41.3716H78.9838V46.4657H79.7881V41.3716Z" fill="white"/>
<path d="M85.1726 41.4834C84.8822 41.3493 84.547 41.2823 84.1672 41.2823C83.8991 41.2823 83.6533 41.327 83.4299 41.394C83.1841 41.461 82.9831 41.5951 82.782 41.7515C82.6479 41.8632 82.5586 42.0196 82.4468 42.1983L82.4022 41.394H81.6872V46.4881H82.5139V43.7846C82.5139 43.3378 82.6032 43.0027 82.7596 42.7345C82.916 42.4664 83.1171 42.2877 83.3629 42.176C83.6086 42.0643 83.8544 41.9972 84.1002 41.9972C84.4577 41.9972 84.7481 42.109 84.9939 42.3324C85.2396 42.5558 85.3514 42.958 85.3514 43.5165V46.4881H86.1557V43.2261C86.1557 42.7792 86.0663 42.4217 85.8876 42.1313C85.7088 41.8408 85.4854 41.6174 85.1726 41.4834Z" fill="white"/>
<path d="M88.1218 46.4657H88.9262V43.4495H91.9647V42.6899H88.9262V40.5226H92.8361V39.7407H88.1218V46.4657Z" fill="white"/>
<path d="M94.5788 39.1821C94.4 39.1821 94.2436 39.2268 94.1319 39.3609C94.0202 39.4726 93.9532 39.629 93.9532 39.8077C93.9532 39.9865 93.9979 40.1429 94.1319 40.2546C94.2436 40.3663 94.4 40.4333 94.5788 40.4333C94.7575 40.4333 94.9139 40.3886 95.0256 40.2546C95.1373 40.1429 95.2044 39.9865 95.2044 39.8077C95.2044 39.629 95.1597 39.4726 95.0256 39.3609C94.8916 39.2492 94.7799 39.1821 94.5788 39.1821Z" fill="white"/>
<path d="M94.9809 41.3716H94.1766V46.4657H94.9809V41.3716Z" fill="white"/>
<path d="M102.957 43.7176L101.684 43.4495C101.416 43.4048 101.214 43.2931 101.103 43.1814C100.991 43.0473 100.946 42.9133 100.946 42.7792C100.946 42.6228 100.991 42.4888 101.08 42.3771C101.17 42.2654 101.304 42.1536 101.483 42.0866C101.661 42.0196 101.862 41.9749 102.108 41.9749C102.376 41.9749 102.667 42.0419 102.913 42.176C103.181 42.31 103.359 42.5335 103.471 42.8463L104.164 42.3994C103.985 42.0419 103.739 41.7515 103.382 41.5727C103.024 41.394 102.6 41.2823 102.108 41.2823C101.706 41.2823 101.371 41.3493 101.058 41.4834C100.768 41.6174 100.544 41.8185 100.365 42.0419C100.209 42.2654 100.12 42.5335 100.12 42.8016C100.12 43.159 100.231 43.4495 100.433 43.6953C100.656 43.941 100.991 44.0974 101.505 44.2091L102.734 44.4549C103.002 44.4996 103.158 44.589 103.248 44.723C103.337 44.8347 103.382 44.9688 103.382 45.1252C103.382 45.3486 103.27 45.5273 103.069 45.6614C102.868 45.7955 102.577 45.8625 102.22 45.8625C101.818 45.8625 101.46 45.7731 101.17 45.5944C100.879 45.4156 100.656 45.1699 100.522 44.8571L99.8293 45.3486C100.053 45.7284 100.365 46.0412 100.79 46.2423C101.214 46.4434 101.661 46.5551 102.153 46.5551C102.555 46.5551 102.913 46.4881 103.225 46.354C103.538 46.22 103.762 46.0412 103.94 45.7955C104.119 45.5497 104.186 45.2816 104.186 44.9464C104.186 44.6337 104.097 44.3655 103.896 44.1421C103.762 43.9857 103.426 43.8293 102.957 43.7176Z" fill="white"/>
<path d="M108.23 45.7061C108.096 45.7732 107.917 45.8178 107.716 45.8178C107.493 45.8178 107.314 45.7508 107.158 45.6391C107.024 45.5274 106.934 45.3263 106.934 45.0805V42.0867H108.789V41.3717H106.934V39.9194L106.107 40.1429V41.3717H105.08V42.0643H106.107V45.1922C106.107 45.5274 106.174 45.7731 106.309 45.9742C106.443 46.1753 106.621 46.3094 106.845 46.4211C107.068 46.5104 107.314 46.5551 107.56 46.5551C107.828 46.5551 108.074 46.5105 108.297 46.4434C108.52 46.3764 108.699 46.2423 108.856 46.1083L108.565 45.4157C108.498 45.5497 108.364 45.6391 108.23 45.7061Z" fill="white"/>
<path d="M113.816 45.4827V43.025C113.816 42.6228 113.726 42.2877 113.548 42.0419C113.369 41.7962 113.145 41.5951 112.833 41.461C112.542 41.327 112.207 41.2823 111.827 41.2823C111.291 41.2823 110.822 41.394 110.464 41.6398C110.107 41.8632 109.839 42.176 109.705 42.5558L110.375 42.958C110.487 42.6228 110.665 42.3771 110.911 42.2207C111.157 42.0643 111.447 41.9972 111.805 41.9972C112.185 41.9972 112.475 42.109 112.676 42.31C112.877 42.5111 112.989 42.8016 112.989 43.2037V43.4048L111.135 43.7623C110.688 43.8517 110.33 44.0081 110.062 44.2762C109.816 44.5219 109.682 44.8347 109.682 45.2146C109.682 45.5273 109.749 45.7731 109.906 45.9965C110.062 46.1976 110.263 46.354 110.531 46.4657C110.799 46.5774 111.067 46.6221 111.358 46.6221C111.604 46.6221 111.827 46.5774 112.073 46.5104C112.319 46.4434 112.542 46.3093 112.743 46.1529C112.833 46.0636 112.922 45.9742 112.989 45.8848C113.011 45.9965 113.034 46.0859 113.101 46.1529C113.19 46.3093 113.302 46.421 113.458 46.4881C113.615 46.5551 113.793 46.5998 113.994 46.5998C114.218 46.5998 114.397 46.5551 114.531 46.4881L114.575 45.8401C114.464 45.8848 114.329 45.8848 114.195 45.8848C113.95 45.8625 113.816 45.7284 113.816 45.4827ZM112.877 45.1475C112.788 45.3039 112.676 45.438 112.542 45.5497C112.408 45.6614 112.229 45.7284 112.051 45.7731C111.872 45.8178 111.671 45.8401 111.492 45.8401C111.179 45.8401 110.956 45.7731 110.777 45.6391C110.598 45.505 110.531 45.3263 110.531 45.1252C110.531 44.9018 110.621 44.7454 110.777 44.6113C110.933 44.4996 111.179 44.3879 111.514 44.3209L112.989 44.0081V44.5443C112.989 44.8124 112.944 44.9911 112.877 45.1475Z" fill="white"/>
<path d="M118.195 41.2823C117.793 41.2823 117.457 41.3717 117.189 41.5057C116.921 41.6621 116.698 41.9079 116.564 42.2207L116.452 41.394H115.782V46.4881H116.608V43.74C116.608 43.3601 116.675 43.0473 116.832 42.8016C116.988 42.5558 117.145 42.3771 117.368 42.243C117.591 42.109 117.793 42.0643 117.994 42.0643C118.15 42.0643 118.284 42.0643 118.373 42.0866C118.463 42.109 118.552 42.1313 118.619 42.1536L118.753 41.4163C118.686 41.3717 118.597 41.3493 118.485 41.327C118.373 41.2823 118.284 41.2823 118.195 41.2823Z" fill="white"/>
<path d="M122.127 45.7061C121.993 45.7732 121.814 45.8178 121.613 45.8178C121.39 45.8178 121.211 45.7508 121.055 45.6391C120.921 45.5274 120.831 45.3263 120.831 45.0805V42.0867H122.686V41.3717H120.831V39.9194L120.004 40.1429V41.3717H118.977V42.0643H120.004V45.1922C120.004 45.5274 120.071 45.7731 120.206 45.9742C120.34 46.1753 120.518 46.3094 120.742 46.4211C120.965 46.5104 121.211 46.5551 121.457 46.5551C121.725 46.5551 121.971 46.5105 122.194 46.4434C122.417 46.3764 122.596 46.2423 122.753 46.1083L122.462 45.4157C122.395 45.5497 122.261 45.6391 122.127 45.7061Z" fill="white"/>
<path d="M126.484 43.7176L125.21 43.4495C124.942 43.4048 124.741 43.2931 124.629 43.1814C124.518 43.0697 124.473 42.9133 124.473 42.7792C124.473 42.6228 124.518 42.4888 124.607 42.3771C124.696 42.2654 124.83 42.1536 125.009 42.0866C125.188 42.0196 125.389 41.9749 125.635 41.9749C125.903 41.9749 126.193 42.0419 126.439 42.176C126.707 42.31 126.886 42.5335 126.998 42.8463L127.69 42.3994C127.512 42.0419 127.266 41.7515 126.908 41.5727C126.551 41.394 126.126 41.2823 125.635 41.2823C125.233 41.2823 124.897 41.3493 124.585 41.4834C124.294 41.6174 124.071 41.8185 123.892 42.0419C123.736 42.2654 123.646 42.5335 123.646 42.8016C123.646 43.159 123.758 43.4495 123.959 43.6953C124.183 43.941 124.518 44.0974 125.032 44.2091L126.26 44.4549C126.528 44.4996 126.685 44.589 126.774 44.723C126.864 44.8347 126.908 44.9688 126.908 45.1252C126.908 45.3486 126.797 45.5273 126.595 45.6614C126.394 45.7955 126.104 45.8625 125.746 45.8625C125.344 45.8625 124.987 45.7731 124.696 45.5944C124.406 45.4156 124.183 45.1699 124.048 44.8571L123.356 45.3486C123.579 45.7284 123.892 46.0412 124.317 46.2423C124.741 46.4434 125.188 46.5551 125.679 46.5551C126.082 46.5551 126.439 46.4881 126.752 46.354C127.065 46.22 127.288 46.0412 127.467 45.7955C127.646 45.5497 127.713 45.2816 127.713 44.9464C127.713 44.6337 127.623 44.3655 127.422 44.1421C127.31 43.9857 126.975 43.8293 126.484 43.7176Z" fill="white"/>
<path d="M136.247 41.4834C135.957 41.3493 135.622 41.2823 135.242 41.2823C134.907 41.2823 134.572 41.3493 134.281 41.4834C133.991 41.6174 133.745 41.8408 133.566 42.1536V39.048H132.74V46.4881H133.566V43.7846C133.566 43.3378 133.656 43.0026 133.812 42.7345C133.968 42.4664 134.17 42.2877 134.415 42.176C134.661 42.0643 134.907 41.9972 135.153 41.9972C135.51 41.9972 135.801 42.1089 136.046 42.3324C136.292 42.5558 136.404 42.958 136.404 43.5165V46.4881H137.23V43.2261C137.23 42.7792 137.141 42.4217 136.962 42.1313C136.784 41.8408 136.538 41.6174 136.247 41.4834Z" fill="white"/>
<path d="M142.369 41.5727C142.034 41.3717 141.632 41.2599 141.14 41.2599C140.671 41.2599 140.247 41.3717 139.889 41.5727C139.532 41.7738 139.241 42.0866 139.018 42.4888C138.817 42.8909 138.705 43.3601 138.705 43.9187C138.705 44.4773 138.817 44.9464 139.018 45.3486C139.219 45.7508 139.532 46.0412 139.912 46.2647C140.291 46.4881 140.716 46.5774 141.207 46.5774C141.543 46.5774 141.833 46.5328 142.101 46.4434C142.369 46.354 142.593 46.22 142.816 46.0412C143.04 45.8625 143.174 45.6614 143.308 45.438L142.66 45.0582C142.526 45.3039 142.325 45.505 142.101 45.6391C141.878 45.7731 141.565 45.8625 141.185 45.8625C140.85 45.8625 140.537 45.7955 140.291 45.6391C140.046 45.4827 139.845 45.2592 139.71 44.9688C139.599 44.7454 139.532 44.4773 139.509 44.1645H143.352C143.375 44.0974 143.375 44.0081 143.375 43.9187C143.375 43.8293 143.375 43.7176 143.375 43.6059C143.375 43.1591 143.285 42.7792 143.107 42.4218C142.972 42.0643 142.704 41.7962 142.369 41.5727ZM139.554 43.4272C139.576 43.2261 139.643 43.0473 139.71 42.8686C139.845 42.5782 140.023 42.3547 140.269 42.1983C140.515 42.0419 140.805 41.9749 141.14 41.9749C141.587 41.9749 141.922 42.109 142.19 42.3771C142.436 42.6228 142.57 42.9803 142.593 43.4272H139.554Z" fill="white"/>
<path d="M147.374 41.2823C146.972 41.2823 146.637 41.3717 146.369 41.5057C146.1 41.6621 145.877 41.9079 145.743 42.2207L145.631 41.3717H144.961V46.4657H145.788V43.7176C145.788 43.3378 145.855 43.025 146.011 42.7792C146.167 42.5335 146.324 42.3547 146.547 42.2207C146.771 42.0866 146.972 42.0419 147.173 42.0419C147.329 42.0419 147.463 42.0419 147.553 42.0643C147.642 42.0866 147.731 42.109 147.798 42.1313L147.932 41.394C147.865 41.3493 147.776 41.327 147.664 41.3046C147.553 41.2823 147.463 41.2823 147.374 41.2823Z" fill="white"/>
<path d="M152.267 41.5727C151.932 41.3717 151.53 41.2599 151.038 41.2599C150.569 41.2599 150.144 41.3717 149.787 41.5727C149.429 41.7738 149.139 42.0866 148.916 42.4888C148.715 42.8909 148.603 43.3601 148.603 43.9187C148.603 44.4773 148.715 44.9464 148.916 45.3486C149.117 45.7508 149.429 46.0412 149.809 46.2647C150.189 46.4881 150.614 46.5774 151.105 46.5774C151.44 46.5774 151.731 46.5328 151.999 46.4434C152.267 46.354 152.49 46.22 152.714 46.0412C152.937 45.8625 153.071 45.6614 153.205 45.438L152.557 45.0582C152.423 45.3039 152.222 45.505 151.999 45.6391C151.775 45.7731 151.463 45.8625 151.083 45.8625C150.748 45.8625 150.435 45.7955 150.189 45.6391C149.943 45.4827 149.742 45.2592 149.608 44.9688C149.496 44.7454 149.429 44.4773 149.407 44.1645H153.25C153.272 44.0974 153.272 44.0081 153.272 43.9187C153.272 43.8293 153.272 43.7176 153.272 43.6059C153.272 43.1591 153.183 42.7792 153.004 42.4218C152.848 42.0643 152.602 41.7962 152.267 41.5727ZM149.429 43.4272C149.474 43.2261 149.519 43.0473 149.586 42.8686C149.72 42.5782 149.899 42.3547 150.144 42.1983C150.39 42.0419 150.681 41.9749 151.016 41.9749C151.463 41.9749 151.798 42.109 152.066 42.3771C152.312 42.6228 152.446 42.9803 152.468 43.4272H149.429Z" fill="white"/>
</g>
</svg>
