<svg width="47" height="48" viewBox="0 0 47 48" fill="none" xmlns="http://www.w3.org/2000/svg">
<g filter="url(#filter0_i_76_3)">
<ellipse cx="23.5" cy="24" rx="23.5" ry="24" fill="#151515"/>
</g>
<path d="M46.5 24C46.5 36.9887 36.1927 47.5 23.5 47.5C10.8073 47.5 0.5 36.9887 0.5 24C0.5 11.0113 10.8073 0.5 23.5 0.5C36.1927 0.5 46.5 11.0113 46.5 24Z" stroke="#0E0E0E"/>
<path d="M34.0788 20.806C32.6465 16.918 33.3887 17.5899 30.2582 15.9165C29.1949 15.3487 28.0358 15.0457 26.8417 14.9671C26.6535 14.9555 26.4131 14.8896 26.3642 15.181C26.3111 15.4979 26.5897 15.41 26.7311 15.4574C27.9731 15.8656 29.1364 16.4566 30.2221 17.2279C30.3699 17.332 30.5602 17.4188 30.5889 17.7009C28.0348 16.4947 25.4019 15.8818 22.6563 15.9177C19.9118 15.9524 17.2896 16.6717 14.729 17.7379C14.9353 17.4893 15.1586 17.3124 15.3947 17.1562C16.5942 16.3641 17.9021 15.846 19.2238 15.3626C19.3429 15.3186 19.5609 15.3302 19.5226 15.1186C19.495 14.9671 19.3323 14.9104 19.1728 14.9416C19.0856 14.959 18.9963 14.9532 18.908 14.9671C17.447 15.188 16.0285 15.5881 14.7365 16.3779C13.9794 16.8417 13.2212 17.2846 12.8331 18.2722C12.1664 19.9664 11.5082 21.6595 11.0477 23.4346C10.4044 25.9187 10.0662 28.4548 10.0003 31.0349C9.99394 31.3055 10.0833 31.494 10.2417 31.6987C11.7368 33.6461 13.6604 34.6546 15.9668 34.9044C16.5399 34.9656 16.9483 34.8639 17.2662 34.3238C17.465 33.9873 17.7139 33.6797 17.9701 33.3906C18.2487 33.0783 18.17 32.9638 17.8245 32.8239C16.6378 32.3451 15.5425 31.701 14.7269 30.5179C20.25 33.6889 25.7783 33.7745 31.328 30.5619C31.1525 30.9597 30.9122 31.2303 30.64 31.4755C29.8946 32.152 29.0162 32.5452 28.1156 32.8967C27.9848 32.9476 27.6924 32.9453 27.9178 33.2541C28.3017 33.7791 28.6855 34.3053 29.0673 34.8327C29.1736 34.9795 29.314 34.9518 29.4554 34.9437C31.9957 34.8072 34.1427 33.7814 35.7983 31.6351C35.9429 31.4477 36.0078 31.2661 35.9993 31.014C35.8823 27.4938 35.2815 24.073 34.0788 20.806ZM18.874 29.1348C17.6277 29.1429 16.5782 27.9009 16.5867 26.4287C16.5942 24.9889 17.5863 23.8475 18.8378 23.8371C20.0979 23.8278 21.1262 25.0005 21.1294 26.4507C21.1315 27.8893 20.0915 29.1279 18.874 29.1348ZM26.948 29.1348C25.7294 29.1452 24.6735 27.9078 24.6671 26.4611C24.6607 25.049 25.6933 23.8429 26.914 23.8371C28.1996 23.8313 29.2023 24.9704 29.2119 26.4495C29.2215 27.8893 28.1804 29.1244 26.948 29.1348Z" fill="#FDFDFD" fill-opacity="0.3"/>
<defs>
<filter id="filter0_i_76_3" x="0" y="0" width="47" height="52" filterUnits="userSpaceOnUse" color-interpolation-filters="sRGB">
<feFlood flood-opacity="0" result="BackgroundImageFix"/>
<feBlend mode="normal" in="SourceGraphic" in2="BackgroundImageFix" result="shape"/>
<feColorMatrix in="SourceAlpha" type="matrix" values="0 0 0 0 0 0 0 0 0 0 0 0 0 0 0 0 0 0 127 0" result="hardAlpha"/>
<feOffset dy="4"/>
<feGaussianBlur stdDeviation="2"/>
<feComposite in2="hardAlpha" operator="arithmetic" k2="-1" k3="1"/>
<feColorMatrix type="matrix" values="0 0 0 0 0 0 0 0 0 0 0 0 0 0 0 0 0 0 0.25 0"/>
<feBlend mode="normal" in2="shape" result="effect1_innerShadow_76_3"/>
</filter>
</defs>
</svg>
