<svg width="26" height="21" viewBox="0 0 26 21" fill="none" xmlns="http://www.w3.org/2000/svg">
<path d="M24.0788 6.80598C22.6465 2.91798 23.3887 3.58988 20.2582 1.91649C19.1949 1.34867 18.0358 1.04568 16.8417 0.967042C16.6535 0.955478 16.4131 0.88956 16.3642 1.18099C16.3111 1.49785 16.5897 1.40996 16.7311 1.45738C17.9731 1.86561 19.1364 2.45656 20.2221 3.22791C20.3699 3.33199 20.5602 3.41873 20.5889 3.7009C18.0348 2.49472 15.4019 1.8818 12.6563 1.91765C9.91182 1.95234 7.28959 2.67166 4.72904 3.73791C4.93533 3.48927 5.15864 3.31233 5.3947 3.15621C6.59416 2.36404 7.90208 1.84595 9.22383 1.36255C9.34293 1.3186 9.56091 1.33017 9.52263 1.11854C9.49498 0.967042 9.33229 0.910376 9.17279 0.9416C9.08559 0.958947 8.99627 0.953165 8.90801 0.967042C7.44697 1.18793 6.02846 1.58806 4.73649 2.37792C3.97938 2.84166 3.22121 3.28458 2.83309 4.27219C2.16637 5.9664 1.50815 7.65945 1.04772 9.4346C0.404394 11.9187 0.0662478 14.4548 0.000319997 17.0348C-0.00606011 17.3054 0.0832614 17.4939 0.241701 17.6986C1.73677 19.6461 3.66038 20.6545 5.96678 20.9043C6.53993 20.9656 6.94826 20.8638 7.2662 20.3238C7.46505 19.9873 7.71387 19.6796 7.97014 19.3905C8.24874 19.0783 8.17005 18.9638 7.82446 18.8239C6.63776 18.3451 5.54251 17.7009 4.72692 16.5179C10.25 19.6889 15.7783 19.7745 21.328 16.5618C21.1525 16.9597 20.9122 17.2303 20.64 17.4754C19.8946 18.152 19.0162 18.5452 18.1156 18.8967C17.9848 18.9476 17.6924 18.9453 17.9178 19.2541C18.3017 19.7791 18.6855 20.3053 19.0673 20.8326C19.1736 20.9795 19.314 20.9517 19.4554 20.9436C21.9957 20.8072 24.1427 19.7814 25.7983 17.635C25.9429 17.4477 26.0078 17.2661 25.9993 17.014C25.8823 13.4938 25.2815 10.073 24.0788 6.80598ZM8.87399 15.1348C7.62774 15.1429 6.57821 13.9008 6.58672 12.4287C6.59416 10.9889 7.58627 9.84746 8.83783 9.83705C10.0979 9.8278 11.1262 11.0004 11.1294 12.4506C11.1315 13.8893 10.0915 15.1278 8.87399 15.1348ZM16.948 15.1348C15.7294 15.1452 14.6735 13.9078 14.6671 12.461C14.6607 11.049 15.6933 9.84283 16.914 9.83705C18.1996 9.83127 19.2023 10.9704 19.2119 12.4495C19.2215 13.8893 18.1804 15.1244 16.948 15.1348Z" fill="#FDFDFD" fill-opacity="0.3"/>
</svg>
