<svg width="175" height="19" viewBox="0 0 175 19" fill="none" xmlns="http://www.w3.org/2000/svg">
<mask id="mask0_1_152" style="mask-type:luminance" maskUnits="userSpaceOnUse" x="0" y="0" width="175" height="19">
<path d="M175 0.950226H0V18.992H175V0.950226Z" fill="white"/>
</mask>
<g mask="url(#mask0_1_152)">
<path d="M156.51 0.950134H152.243L148.255 18.9919H152.522L156.51 0.950134Z" fill="white"/>
<path d="M175.001 0.950134H170.733L166.745 18.9919H171.012L175.001 0.950134Z" fill="white"/>
<path d="M160.776 0.950134L166.745 18.9919H162.477L156.509 0.950134H160.776Z" fill="white"/>
<path d="M55.2344 14.7183L58.2778 0.950134H54.0109L50.0228 18.9919H72.7803L73.7246 14.7183H55.2344Z" fill="white"/>
<path d="M78.5692 0.950134L74.5808 18.9919H90.4541C94.2561 18.9919 98.0204 15.9049 98.8617 12.0972L95.5397 7.82366H99.8065C100.645 4.02762 98.2533 0.950487 94.4634 0.950487L78.5692 0.950134ZM91.4208 14.718H79.7927L80.3717 12.0969H94.5956L94.5911 12.1184C94.2733 13.554 92.8538 14.718 91.4208 14.718ZM95.5404 7.82331H81.3166L81.8912 5.22367H93.5193C94.9531 5.22367 95.8574 6.38762 95.5404 7.82331Z" fill="white"/>
<path d="M146.453 18.9919L147.976 12.0972L144.654 7.82366H148.921C149.76 4.02762 147.368 0.950134 143.578 0.950134H127.683L123.695 18.9915H127.962L129.487 12.0969H143.71L142.186 18.9915L146.453 18.9919ZM144.654 7.82366H130.431L131.006 5.22403H142.633C144.067 5.22403 144.971 6.38797 144.654 7.82366Z" fill="white"/>
<path d="M103.125 0.950134L99.137 18.9919H121.894L125.883 0.950134H103.125ZM118.572 14.7183H104.349L106.447 5.22403H120.671L118.572 14.7183Z" fill="white"/>
<path d="M40.3792 0.950134H35.6595L24.5599 18.9919H28.8267L40.3792 0.950134H45.0985L48.2222 18.9919H43.9554L40.3792 0.950134Z" fill="white"/>
<path d="M22.4784 0.950226L20.9569 7.83434H6.73344L8.25497 0.950226H3.98812L0 18.992H4.2672L6.73344 7.83434L10.0556 12.1082H20.0122L18.4903 18.992H22.7574L26.7453 0.950226H22.4784Z" fill="white"/>
</g>
</svg>
