<svg width="1911" height="254" viewBox="0 0 1911 254" fill="none" xmlns="http://www.w3.org/2000/svg">
<g clip-path="url(#clip0_122_94)">
<path d="M588.663 224.443V59.8852H667.985L832.507 224.443H767.88L662.107 118.663H635.672V224.443H588.663ZM800.194 174.5V59.8852H847.202V221.504L800.194 174.5Z" fill="#FF6633"/>
<path d="M1062.58 224.443V177.424H1124.27L1241.78 59.8852H1321.1V106.904H1259.41L1141.9 224.443H1062.58ZM1124.27 106.904H1062.58V59.8852H1141.9L1183.03 101.025L1150.72 133.345L1124.27 106.904ZM1241.78 224.443L1200.65 183.304L1232.96 150.983L1259.4 177.424H1321.09V224.443H1241.78Z" fill="#FF6633"/>
<path d="M1315.57 235.827H595.448C585.365 235.827 577.189 227.649 577.189 217.563V66.4525C577.189 56.367 585.365 48.1891 595.448 48.1891H1315.57C1325.65 48.1891 1333.83 56.367 1333.83 66.4525V217.563C1333.83 227.649 1325.65 235.827 1315.57 235.827Z" stroke="#FF6633" stroke-width="2.7939" stroke-miterlimit="10"/>
<path d="M857.801 59.9164H904.7V159.99L921.897 177.19H1052.87V224.099H904.7L857.801 177.19V59.9164Z" fill="#FF6633"/>
</g>
<g clip-path="url(#clip1_122_94)">
<path d="M279.172 83.731H55.2545L0.902344 137.912L86.8176 223.557H151.844V212.514L135.186 195.915H98.3049L40.1194 137.912L66.7419 111.373H296.54V101.045L279.172 83.731Z" stroke="#FF6633" stroke-width="2" stroke-miterlimit="10"/>
<path d="M421.845 18.0731V76.3946H366.629L271.594 171.13H196.219L174.793 192.489V198.773H283.082L378.117 104.037H449.575V0.637947H439.336L421.845 18.0731Z" stroke="#FF6633" stroke-width="2" stroke-miterlimit="10"/>
<path d="M444.91 214.881H174.793V221.305L196.079 242.523H456.378V226.319L444.91 214.881Z" stroke="#FF6633" stroke-width="2" stroke-miterlimit="10"/>
<path d="M424.453 199.251H339.389V188.642L357.43 170.658H412.569L507.604 75.9161H562.839L577.36 90.3912V104.509H519.482L424.453 199.251ZM340.343 198.294H424.056L519.091 103.559H576.406V90.7867L562.442 76.8667H508.001L412.966 171.609H357.82L340.343 189.031V198.294Z" stroke="#FF6633" stroke-width="2" stroke-miterlimit="10"/>
<path d="M560.597 176.942H514.596L472.474 218.932L479.321 225.758H504.843L526.077 204.584H576.935V193.229L560.597 176.942Z" stroke="#FF6633" stroke-width="2" stroke-miterlimit="10"/>
<path d="M246.022 157.982H133.497V145.37L152.068 126.856H266.104V137.957L246.022 157.982ZM134.457 157.032H245.625L265.15 137.568V127.813H152.465L134.457 145.765V157.032Z" stroke="#FF6633" stroke-width="2" stroke-miterlimit="10"/>
</g>
<g clip-path="url(#clip2_122_94)">
<path d="M1631.83 83.731H1855.75L1910.1 137.912L1824.18 223.557H1759.16V212.514L1775.81 195.915H1812.7L1870.88 137.912L1844.26 111.373H1614.46V101.045L1631.83 83.731Z" stroke="#FF6633" stroke-width="2" stroke-miterlimit="10"/>
<path d="M1489.15 18.0731V76.3946H1544.37L1639.41 171.13H1714.78L1736.21 192.489V198.773H1627.92L1532.88 104.037H1461.42V0.637947H1471.66L1489.15 18.0731Z" stroke="#FF6633" stroke-width="2" stroke-miterlimit="10"/>
<path d="M1466.09 214.881H1736.21V221.305L1714.92 242.523H1454.62V226.319L1466.09 214.881Z" stroke="#FF6633" stroke-width="2" stroke-miterlimit="10"/>
<path d="M1484.55 199.251H1569.61V188.642L1551.57 170.658H1496.43L1401.4 75.9161H1346.16L1331.64 90.3912V104.509H1389.52L1484.55 199.251ZM1568.66 198.294H1484.94L1389.91 103.559H1332.59V90.7867L1346.56 76.8667H1401L1496.03 171.609H1551.18L1568.66 189.031V198.294Z" stroke="#FF6633" stroke-width="2" stroke-miterlimit="10"/>
<path d="M1350.4 176.942H1396.4L1438.53 218.932L1431.68 225.758H1406.16L1384.92 204.584H1334.07V193.229L1350.4 176.942Z" stroke="#FF6633" stroke-width="2" stroke-miterlimit="10"/>
<path d="M1664.98 157.982H1777.5V145.37L1758.93 126.856H1644.9V137.957L1664.98 157.982ZM1776.54 157.032H1665.38L1645.85 137.568V127.813H1758.53L1776.54 145.765V157.032Z" stroke="#FF6633" stroke-width="2" stroke-miterlimit="10"/>
</g>
<defs>
<clipPath id="clip0_122_94">
<rect width="761" height="192" fill="white" transform="translate(575 46)"/>
</clipPath>
<clipPath id="clip1_122_94">
<rect width="576" height="254" fill="white"/>
</clipPath>
<clipPath id="clip2_122_94">
<rect width="576" height="254" fill="white" transform="matrix(-1 0 0 1 1911 0)"/>
</clipPath>
</defs>
</svg>
