<svg width="88" height="19" viewBox="0 0 88 19" fill="none" xmlns="http://www.w3.org/2000/svg">
<path d="M5.46625 13.9384V10.8631H12.7546C13.8687 10.8631 14.7387 10.5465 15.3625 9.91334C15.9863 9.28016 16.2982 8.44553 16.2982 7.41355C16.2982 6.38159 15.9863 5.53052 15.3625 4.91378C14.7387 4.29707 13.8687 3.98871 12.7546 3.98871H3.14556V18.9935H0V0.808502H12.7546C13.8031 0.808502 14.7387 0.962682 15.5636 1.27104C16.3864 1.5794 17.082 2.01316 17.6483 2.57232C18.2146 3.13148 18.6476 3.80986 18.9472 4.60955C19.2468 5.40921 19.3965 6.30963 19.3965 7.31078C19.3965 8.31192 19.2468 9.18972 18.9472 9.99967C18.6476 10.8076 18.2146 11.5045 17.6483 12.0883C17.082 12.6721 16.3885 13.1264 15.5636 13.4512C14.7408 13.776 13.8031 13.9384 12.7546 13.9384H5.46625Z" fill="white"/>
<path d="M29.7194 18.9894V12.0862L20.0858 0.808502H24.3537L31.4185 9.18559L38.5057 0.808502H42.5498L32.8897 12.0862V18.9894H29.7194Z" fill="white"/>
<path d="M53.4805 18.9894V3.9846H45.1325V0.808502H65.0102V3.9846H56.6506V18.9894H53.4805Z" fill="white"/>
<path d="M84.842 0.808502H87.9999V18.9894H84.842V0.808502Z" fill="white"/>
<path d="M71.2154 18.9894V11.12H82.9638V8.30575H71.2154V0.808502H68.0575V18.9894H71.2154Z" fill="white"/>
</svg>
