<svg width="109" height="38" viewBox="0 0 109 38" fill="none" xmlns="http://www.w3.org/2000/svg">
<path fill-rule="evenodd" clip-rule="evenodd" d="M15.5437 4.26356L3.33593 11.6158V26.3129L15.5509 33.6652L27.7659 26.3129V11.6158L15.5437 4.26356ZM16.0614 0.557466C15.745 0.362803 15.3496 0.362803 15.0333 0.557466L0.510455 9.29486C0.194117 9.48952 0 9.84141 0 10.2233V27.698C0 28.0799 0.194117 28.4318 0.510455 28.6264L15.0333 37.3638C15.3496 37.5585 15.745 37.5585 16.0614 37.3638L30.5842 28.6264C30.9005 28.4318 31.0946 28.0799 31.0946 27.698V10.2233C31.0946 9.84141 30.9005 9.48952 30.5842 9.29486L16.0614 0.557466Z" fill="#EFEFEF"/>
<path d="M15.5436 9.58794L7.75738 14.2748V23.6486L15.4933 28.3056C15.4933 28.3056 15.5436 28.358 15.5436 28.3954V29.9977C15.5436 30.08 15.4573 30.1324 15.3926 30.0875L6.60706 24.7941C6.3698 24.6519 6.22601 24.3824 6.22601 24.0979V13.7957C6.22601 13.5112 6.3698 13.2416 6.60706 13.0994L15.1626 7.94827C15.3998 7.80602 15.6946 7.80602 15.9318 7.94827L24.7534 13.2416C24.8181 13.2791 24.8253 13.3839 24.7534 13.4288C24.2357 13.7507 23.9625 13.893 23.3802 14.2299C23.3514 14.2449 23.3083 14.2449 23.2795 14.2299L15.5436 9.57296V9.58794Z" fill="#EFEFEF"/>
<path d="M16.8301 19.1622C16.8301 19.1247 16.8517 19.0873 16.8877 19.0649L24.6308 14.7673C24.7026 14.7298 24.7817 14.7823 24.7817 14.8646V25.3165C24.7817 25.354 24.7602 25.3914 24.7314 25.4064L16.9883 30.0933C16.9164 30.1382 16.8373 30.0858 16.8373 30.0034V19.1622H16.8301Z" fill="#EFEFEF"/>
<path d="M46.38 28.3034C44.6042 28.3034 43.0944 27.9815 41.8506 27.3376C40.6212 26.6788 39.6722 25.6605 39.018 24.2904C38.3565 22.9202 38.033 21.1758 38.033 19.0569C38.033 15.9348 38.7663 13.6213 40.233 12.1089C41.7212 10.5816 43.7774 9.8179 46.4088 9.8179C47.8611 9.8179 49.1624 10.0725 50.3055 10.5741C51.4702 11.0757 52.3833 11.8319 53.0375 12.8352C53.7133 13.8235 54.0512 15.0888 54.0512 16.6311H51.1611C51.1611 15.6803 50.9669 14.8792 50.5787 14.2353C50.1905 13.5914 49.6369 13.1047 48.9107 12.7753C48.199 12.4459 47.3722 12.2811 46.4304 12.2811C45.2513 12.2811 44.2448 12.5207 43.418 13.0074C42.6055 13.4791 41.9944 14.1903 41.5703 15.1412C41.1676 16.0921 40.9591 17.3124 40.9591 18.7874V19.3564C40.9591 20.8314 41.1605 22.0443 41.5703 23.0026C41.9944 23.9535 42.6055 24.6647 43.418 25.1364C44.2304 25.5856 45.2297 25.8103 46.4304 25.8103C47.4081 25.8103 48.2637 25.653 48.9898 25.3386C49.716 25.0091 50.2696 24.5225 50.6578 23.8786C51.0604 23.2347 51.2689 22.4411 51.2689 21.4827H54.0512C54.0512 23.0251 53.7133 24.3054 53.0375 25.3086C52.3761 26.3119 51.4702 27.0606 50.3055 27.5473C49.1552 28.0339 47.8467 28.2735 46.38 28.2735V28.3034Z" fill="#EFEFEF"/>
<path d="M65.0865 28.3055C63.2963 28.3055 61.7434 27.9686 60.4277 27.2873C59.1264 26.6135 58.1199 25.5877 57.4153 24.2176C56.7251 22.8475 56.38 21.1329 56.38 19.0665C56.38 17.0001 56.7251 15.2706 57.4153 13.9154C58.1271 12.5453 59.1264 11.5196 60.4277 10.8457C61.7434 10.1719 63.2963 9.82748 65.0865 9.82748C66.8767 9.82748 68.4728 10.1644 69.7741 10.8457C71.0754 11.5196 72.0675 12.5453 72.7649 13.9154C73.4767 15.2706 73.8289 16.9851 73.8289 19.0665C73.8289 21.1479 73.4767 22.8475 72.7649 24.2176C72.0747 25.5877 71.0754 26.6135 69.7741 27.2873C68.4728 27.9611 66.9126 28.3055 65.0865 28.3055ZM65.0865 25.8348C66.0139 25.8348 66.8335 25.7075 67.5453 25.4455C68.2714 25.1834 68.8754 24.7866 69.3714 24.2476C69.8747 23.7085 70.2558 23.0347 70.5074 22.2186C70.7806 21.4025 70.91 20.4591 70.91 19.381V18.812C70.91 17.7039 70.7734 16.738 70.5074 15.9219C70.2558 15.1059 69.8747 14.432 69.3714 13.893C68.8826 13.3539 68.2714 12.9571 67.5453 12.695C66.8335 12.433 66.0139 12.3057 65.0865 12.3057C64.1591 12.3057 63.3538 12.433 62.6277 12.695C61.9159 12.9571 61.312 13.3539 60.8016 13.893C60.3127 14.432 59.9388 15.1059 59.6872 15.9219C59.4355 16.738 59.3061 17.7039 59.3061 18.812V19.381C59.3061 20.4591 59.4355 21.4025 59.6872 22.2186C59.9388 23.0347 60.3127 23.7085 60.8016 24.2476C61.3048 24.7866 61.9159 25.1834 62.6277 25.4455C63.3538 25.7075 64.1734 25.8348 65.0865 25.8348Z" fill="#EFEFEF"/>
<path d="M77.0933 27.9984V10.1418H86.2311C87.4605 10.1418 88.4814 10.3664 89.2938 10.8156C90.1063 11.2648 90.7102 11.9012 91.12 12.7173C91.5226 13.5184 91.7311 14.4543 91.7311 15.525C91.7311 16.7229 91.4723 17.7636 90.9474 18.6471C90.4226 19.5306 89.6821 20.1819 88.7187 20.6012L92.3422 27.9909H89.2507L85.9579 21.0953H79.9331V27.9909H77.1004L77.0933 27.9984ZM79.9259 18.6546H86.0011C86.9141 18.6546 87.6115 18.3775 88.1004 17.8235C88.6037 17.2695 88.8625 16.4983 88.8625 15.51C88.8625 14.9036 88.7546 14.3944 88.5318 13.9752C88.3089 13.5409 87.9926 13.2115 87.5684 12.9869C87.1442 12.7623 86.6194 12.6499 86.0011 12.6499H79.9259V18.6621V18.6546Z" fill="#EFEFEF"/>
<path d="M95.3689 27.9984V10.1418H108.842V12.6425H98.2088V17.6139H107.728V20.1145H98.2088V25.4977H109V27.9984H95.3761H95.3689Z" fill="#EFEFEF"/>
</svg>
