<svg width="92" height="13" viewBox="0 0 92 13" fill="none" xmlns="http://www.w3.org/2000/svg">
<path d="M3.27734 8.30753V1.10582H4.71023V8.30753H3.27734ZM0.395597 5.42045V3.98757H7.5973V5.42045H0.395597ZM14.0306 9V0.818182H15.5594V2.14986H15.6606C15.8311 1.69886 16.1098 1.3473 16.4969 1.09517C16.884 0.839489 17.3474 0.711648 17.8872 0.711648C18.434 0.711648 18.8921 0.839489 19.2615 1.09517C19.6343 1.35085 19.9095 1.70241 20.0871 2.14986H20.1723C20.3676 1.71307 20.6784 1.36506 21.1045 1.10582C21.5306 0.84304 22.0384 0.711648 22.6279 0.711648C23.3701 0.711648 23.9756 0.944247 24.4443 1.40945C24.9166 1.87464 25.1528 2.57599 25.1528 3.51349V9H23.5601V3.66264C23.5601 3.10866 23.4092 2.70739 23.1073 2.45881C22.8055 2.21023 22.445 2.08594 22.026 2.08594C21.5075 2.08594 21.1045 2.24574 20.8169 2.56534C20.5292 2.88139 20.3854 3.288 20.3854 3.78516V9H18.798V3.56143C18.798 3.11754 18.6595 2.76065 18.3825 2.49077C18.1056 2.22088 17.7451 2.08594 17.3012 2.08594C16.9994 2.08594 16.7206 2.16584 16.4649 2.32564C16.2128 2.48189 16.0086 2.70028 15.8524 2.98082C15.6997 3.26136 15.6233 3.58629 15.6233 3.95561V9H14.0306ZM29.6685 9.18111C29.15 9.18111 28.6813 9.08523 28.2623 8.89347C27.8432 8.69815 27.5112 8.41584 27.2662 8.04652C27.0247 7.6772 26.9039 7.22443 26.9039 6.68821C26.9039 6.22656 26.9927 5.84659 27.1703 5.5483C27.3478 5.25 27.5875 5.01385 27.8894 4.83984C28.1912 4.66584 28.5286 4.53445 28.9015 4.44567C29.2743 4.35689 29.6543 4.28942 30.0414 4.24325C30.5314 4.18643 30.9292 4.14027 31.2346 4.10476C31.54 4.0657 31.7619 4.00355 31.9004 3.91832C32.0389 3.8331 32.1081 3.6946 32.1081 3.50284V3.46555C32.1081 3.00035 31.9767 2.63991 31.714 2.38423C31.4547 2.12855 31.0676 2.00071 30.5527 2.00071C30.0165 2.00071 29.5939 2.11967 29.285 2.3576C28.9796 2.59197 28.7683 2.85298 28.6511 3.14062L27.1543 2.79972C27.3319 2.30256 27.5911 1.90128 27.932 1.59588C28.2765 1.28693 28.6724 1.06321 29.1199 0.924715C29.5673 0.78267 30.0378 0.711648 30.5314 0.711648C30.8581 0.711648 31.2044 0.75071 31.5701 0.828835C31.9395 0.903409 32.2839 1.0419 32.6035 1.24432C32.9267 1.44673 33.1912 1.73615 33.3972 2.11257C33.6032 2.48544 33.7061 2.97017 33.7061 3.56676V9H32.1507V7.88139H32.0868C31.9838 8.08736 31.8294 8.28977 31.6234 8.48864C31.4174 8.6875 31.1529 8.85263 30.8297 8.98402C30.5066 9.11541 30.1195 9.18111 29.6685 9.18111ZM30.0147 7.9027C30.4551 7.9027 30.8315 7.8157 31.144 7.64169C31.46 7.46768 31.6998 7.24041 31.8631 6.95987C32.03 6.67578 32.1135 6.37216 32.1135 6.04901V4.99432C32.0566 5.05114 31.9466 5.1044 31.7832 5.15412C31.6234 5.20028 31.4405 5.24112 31.2346 5.27663C31.0286 5.30859 30.8279 5.33878 30.6326 5.36719C30.4373 5.39205 30.274 5.41335 30.1426 5.43111C29.8336 5.47017 29.5513 5.53587 29.2956 5.6282C29.0435 5.72053 28.8411 5.85369 28.6884 6.0277C28.5392 6.19815 28.4647 6.42543 28.4647 6.70952C28.4647 7.10369 28.6103 7.40199 28.9015 7.6044C29.1926 7.80327 29.5637 7.9027 30.0147 7.9027ZM37.4202 4.14205V9H35.8275V0.818182H37.3563V2.14986H37.4575C37.6457 1.71662 37.9404 1.36861 38.3417 1.10582C38.7465 0.84304 39.2561 0.711648 39.8705 0.711648C40.428 0.711648 40.9163 0.828835 41.3353 1.06321C41.7544 1.29403 42.0793 1.63849 42.3101 2.09659C42.5409 2.55469 42.6563 3.12109 42.6563 3.79581V9H41.0637V3.98757C41.0637 3.39453 40.9092 2.93111 40.6002 2.5973C40.2913 2.25994 39.8669 2.09126 39.3271 2.09126C38.9578 2.09126 38.6294 2.17116 38.3417 2.33097C38.0576 2.49077 37.8321 2.72514 37.6652 3.03409C37.5019 3.33949 37.4202 3.70881 37.4202 4.14205ZM45.5061 12.0682C45.2682 12.0682 45.0516 12.0487 44.8563 12.0096C44.661 11.9741 44.5154 11.935 44.4195 11.8924L44.803 10.5874C45.0942 10.6655 45.3534 10.6992 45.5807 10.6886C45.808 10.6779 46.0086 10.5927 46.1826 10.4329C46.3602 10.2731 46.5164 10.0121 46.6514 9.64986L46.8485 9.10653L43.8548 0.818182H45.5594L47.6315 7.16761H47.7167L49.7888 0.818182H51.4987L48.1269 10.092C47.9706 10.5181 47.7718 10.8786 47.5303 11.1733C47.2888 11.4716 47.0012 11.6953 46.6673 11.8445C46.3335 11.9936 45.9465 12.0682 45.5061 12.0682ZM56.9652 9V0.818182H58.494V2.14986H58.5952C58.7656 1.69886 59.0444 1.3473 59.4315 1.09517C59.8185 0.839489 60.282 0.711648 60.8217 0.711648C61.3686 0.711648 61.8267 0.839489 62.196 1.09517C62.5689 1.35085 62.8441 1.70241 63.0217 2.14986H63.1069C63.3022 1.71307 63.6129 1.36506 64.0391 1.10582C64.4652 0.84304 64.973 0.711648 65.5625 0.711648C66.3047 0.711648 66.9102 0.944247 67.3789 1.40945C67.8512 1.87464 68.0874 2.57599 68.0874 3.51349V9H66.4947V3.66264C66.4947 3.10866 66.3438 2.70739 66.0419 2.45881C65.7401 2.21023 65.3796 2.08594 64.9606 2.08594C64.4421 2.08594 64.0391 2.24574 63.7514 2.56534C63.4638 2.88139 63.32 3.288 63.32 3.78516V9H61.7326V3.56143C61.7326 3.11754 61.5941 2.76065 61.3171 2.49077C61.0401 2.22088 60.6797 2.08594 60.2358 2.08594C59.9339 2.08594 59.6552 2.16584 59.3995 2.32564C59.1474 2.48189 58.9432 2.70028 58.7869 2.98082C58.6342 3.26136 58.5579 3.58629 58.5579 3.95561V9H56.9652ZM73.6684 9.16513C72.9014 9.16513 72.232 8.98935 71.6602 8.63778C71.0885 8.28622 70.6446 7.79439 70.3286 7.16229C70.0125 6.53018 69.8545 5.79155 69.8545 4.94638C69.8545 4.09766 70.0125 3.35547 70.3286 2.71982C70.6446 2.08416 71.0885 1.59055 71.6602 1.23899C72.232 0.887429 72.9014 0.711648 73.6684 0.711648C74.4355 0.711648 75.1048 0.887429 75.6766 1.23899C76.2483 1.59055 76.6922 2.08416 77.0083 2.71982C77.3243 3.35547 77.4823 4.09766 77.4823 4.94638C77.4823 5.79155 77.3243 6.53018 77.0083 7.16229C76.6922 7.79439 76.2483 8.28622 75.6766 8.63778C75.1048 8.98935 74.4355 9.16513 73.6684 9.16513ZM73.6737 7.82812C74.1709 7.82812 74.5828 7.69673 74.9095 7.43395C75.2362 7.17116 75.4777 6.82138 75.634 6.38459C75.7938 5.9478 75.8737 5.46662 75.8737 4.94105C75.8737 4.41903 75.7938 3.93963 75.634 3.50284C75.4777 3.0625 75.2362 2.70916 74.9095 2.44283C74.5828 2.17649 74.1709 2.04332 73.6737 2.04332C73.173 2.04332 72.7575 2.17649 72.4273 2.44283C72.1006 2.70916 71.8573 3.0625 71.6975 3.50284C71.5413 3.93963 71.4632 4.41903 71.4632 4.94105C71.4632 5.46662 71.5413 5.9478 71.6975 6.38459C71.8573 6.82138 72.1006 7.17116 72.4273 7.43395C72.7575 7.69673 73.173 7.82812 73.6737 7.82812ZM79.2601 9V0.818182H80.7995V2.1179H80.8848C81.0339 1.67756 81.2967 1.33132 81.6731 1.07919C82.0531 0.823508 82.4828 0.695667 82.9622 0.695667C83.0616 0.695667 83.1788 0.699218 83.3137 0.706321C83.4522 0.713423 83.5605 0.722301 83.6387 0.732954V2.25639C83.5748 2.23864 83.4611 2.21911 83.2978 2.1978C83.1344 2.17294 82.9711 2.16051 82.8077 2.16051C82.4313 2.16051 82.0957 2.24041 81.801 2.40021C81.5098 2.55646 81.2789 2.77486 81.1085 3.0554C80.938 3.33239 80.8528 3.64844 80.8528 4.00355V9H79.2601ZM88.2503 9.16513C87.4442 9.16513 86.7499 8.9929 86.1675 8.64844C85.5887 8.30043 85.1412 7.81214 84.8252 7.18359C84.5127 6.55149 84.3564 5.81108 84.3564 4.96236C84.3564 4.12429 84.5127 3.38565 84.8252 2.74645C85.1412 2.10724 85.5816 1.60831 86.1462 1.24964C86.7144 0.89098 87.3785 0.711648 88.1384 0.711648C88.6001 0.711648 89.0475 0.787997 89.4807 0.940696C89.914 1.09339 90.3028 1.3331 90.6473 1.6598C90.9917 1.98651 91.2634 2.41087 91.4623 2.93288C91.6611 3.45135 91.7606 4.08168 91.7606 4.82386V5.38849H85.2567V4.19531H90.1998C90.1998 3.77628 90.1146 3.40518 89.9442 3.08203C89.7737 2.75533 89.534 2.49787 89.2251 2.30966C88.9197 2.12145 88.561 2.02734 88.1491 2.02734C87.7016 2.02734 87.311 2.13743 86.9772 2.3576C86.6469 2.57422 86.3912 2.85831 86.2101 3.20987C86.0326 3.55788 85.9438 3.93608 85.9438 4.34446V5.27663C85.9438 5.82351 86.0397 6.28871 86.2314 6.67223C86.4268 7.05575 86.6984 7.34872 87.0464 7.55114C87.3944 7.75 87.801 7.84943 88.2662 7.84943C88.5681 7.84943 88.8433 7.80682 89.0919 7.72159C89.3405 7.63281 89.5553 7.50142 89.7364 7.32741C89.9175 7.15341 90.056 6.93857 90.1519 6.68288L91.6594 6.95455C91.5386 7.39844 91.322 7.78729 91.0095 8.12109C90.7006 8.45135 90.3117 8.70881 89.843 8.89347C89.3778 9.07457 88.8469 9.16513 88.2503 9.16513Z" fill="white" fill-opacity="0.5"/>
</svg>
