<svg width="37" height="36" viewBox="0 0 37 36" fill="none" xmlns="http://www.w3.org/2000/svg">
<path d="M20.2104 27.4406H17.0953V19.3165H13.269V23.8404H10.4596V19.3165H3.33602C3.37129 19.746 3.43006 20.1695 3.49471 20.5872L3.62402 21.3579L0.855708 21.8461L0.726402 21.0578C0.550077 19.9989 0.461914 18.9283 0.461914 17.887C0.461914 16.8458 0.550077 15.781 0.726402 14.7162L0.855708 13.928L3.62402 14.4162L3.49471 15.1869C3.42418 15.6045 3.37129 16.034 3.33602 16.4575H10.4537V11.7455H13.2632V16.4575H17.0894V8.33347H20.2045V16.4575H24.0308V11.9337H26.8402V16.4575H33.9579C33.9226 16.034 33.8639 15.6045 33.7992 15.1869L33.6699 14.4162L36.4382 13.928L36.5675 14.7162C36.7439 15.7751 36.832 16.8399 36.832 17.887C36.832 18.9342 36.7439 19.9989 36.5675 21.0578L36.4382 21.8461L33.6699 21.3579L33.7992 20.5872C33.8697 20.1637 33.9226 19.7401 33.9579 19.3165H26.8402V24.0286H24.0308V19.3165H20.2045V27.4406H20.2104Z" fill="white"/>
<path d="M10.6482 33.3773L9.96055 32.9537C8.72039 32.1948 7.58015 31.2712 6.56334 30.2124L6.03436 29.6594L7.79762 27.8593L8.36186 28.4475C9.22586 29.3476 10.2074 30.1359 11.2654 30.7889L11.9178 31.1889L10.6541 33.3773H10.6482Z" fill="white"/>
<path d="M18.6525 35.4361L17.8649 35.4008C15.5844 35.2949 13.3862 34.7302 11.335 33.7184L10.6414 33.3772L11.6994 31.0829L12.4223 31.4359C14.1679 32.2947 16.037 32.7771 17.9707 32.8654L18.7583 32.9007L18.6466 35.4302L18.6525 35.4361Z" fill="white"/>
<path d="M18.6356 35.4287L18.5239 32.8992L19.3056 32.8639C21.2452 32.7756 23.1143 32.2932 24.8599 31.4402L25.5828 31.0873L26.6408 33.3815L25.9472 33.7227C23.896 34.7287 21.6978 35.2934 19.4173 35.3993L18.6297 35.4346L18.6356 35.4287Z" fill="white"/>
<path d="M26.6523 33.3773L25.3886 31.1889L26.041 30.7889C27.099 30.1418 28.0747 29.3535 28.9445 28.4475L29.5088 27.8593L31.2662 29.6594L30.7372 30.2124C29.7204 31.2712 28.5801 32.1948 27.34 32.9537L26.6523 33.3773Z" fill="white"/>
<path d="M29.5088 7.92723L28.9445 7.33895C28.0747 6.43301 27.099 5.64472 26.041 4.99762L25.3886 4.59759L26.6523 2.40921L27.34 2.83277C28.5801 3.59164 29.7204 4.51523 30.7372 5.57413L31.2662 6.12711L29.5088 7.92723Z" fill="white"/>
<path d="M25.5934 4.71029L24.8704 4.35733C23.1248 3.49845 21.2616 3.01606 19.3221 2.92782L18.5403 2.89253L18.652 0.362946L19.4396 0.398242C21.7201 0.504131 23.9183 1.06888 25.9695 2.08071L26.6631 2.42191L25.6051 4.71618L25.5934 4.71029Z" fill="white"/>
<path d="M11.7114 4.70373L10.6534 2.40946L11.347 2.06826C13.3982 1.06231 15.5964 0.49757 17.8769 0.391681L18.6645 0.356384L18.7762 2.88596L17.9945 2.92126C16.0549 3.0095 14.1858 3.49189 12.4402 4.35077L11.7173 4.70373H11.7114Z" fill="white"/>
<path d="M7.79103 7.92723L6.02777 6.12711L6.55675 5.57413C7.57356 4.51523 8.7138 3.59164 9.95395 2.83277L10.6416 2.40921L11.9053 4.59759L11.2529 4.99762C10.1949 5.64472 9.21926 6.43301 8.34939 7.33895L7.78515 7.92723H7.79103Z" fill="white"/>
</svg>
