<svg width="15" height="19" viewBox="0 0 15 19" fill="none" xmlns="http://www.w3.org/2000/svg">
<path d="M14.998 18.9302C13.7039 18.9302 12.4941 18.8865 11.2902 18.9486C10.7275 18.9785 10.4235 18.7415 10.1255 18.2122C8.9902 16.2076 7.81176 14.2353 6.64902 12.2537C6.5902 12.1525 6.52157 12.0604 6.43137 11.9269C5.81569 12.7623 5.21569 13.5748 4.61961 14.3918C3.58235 15.8094 2.55294 17.234 1.50196 18.6379C1.38431 18.7944 1.15882 18.8842 0.972549 18.9164C0.690196 18.9624 0.4 18.9279 0 18.9279C1.98627 16.2099 3.91373 13.5748 5.86078 10.9097C3.92745 7.61403 2 4.32527 0.0431373 0.985884C0.182353 0.967473 0.278431 0.944458 0.37451 0.944458C1.62549 0.944458 2.87647 0.953664 4.12549 0.935252C4.38627 0.930649 4.52157 1.04572 4.66078 1.28507C5.86667 3.36327 7.08627 5.43226 8.32353 7.54268C8.85686 6.81773 9.37843 6.11119 9.89804 5.40465C10.9275 3.99847 11.951 2.58769 12.9902 1.19301C13.0863 1.06413 13.2667 0.974377 13.4157 0.955965C13.7275 0.919142 14.0451 0.944458 14.4667 0.944458C12.5843 3.51516 10.7588 6.01453 8.9098 8.54151C10.9235 11.9776 12.9333 15.4067 15 18.9325L14.998 18.9302ZM13.0569 17.7358C12.2196 16.3066 11.4294 14.9625 10.6412 13.6162C8.45882 9.89245 6.27647 6.16642 4.0902 2.445C4.02157 2.32762 3.91373 2.15962 3.81961 2.15501C3.22549 2.1274 2.62941 2.14121 1.97451 2.14121C2.0549 2.2862 2.08824 2.35064 2.12353 2.41047C3.31373 4.44495 4.50588 6.47942 5.69804 8.51159C7.43333 11.4735 9.16863 14.4355 10.9118 17.3905C10.998 17.5355 11.1549 17.7104 11.2863 17.7196C11.849 17.7565 12.4118 17.7358 13.0569 17.7358Z" fill="white" fill-opacity="0.3"/>
</svg>
