<svg width="116" height="30" viewBox="0 0 116 30" fill="none" xmlns="http://www.w3.org/2000/svg">
<path d="M2.08319 27.4304V2.146H14.1721L39.2538 27.4304H29.4051L13.276 11.179H9.24378V27.4304H2.08319ZM34.3255 19.7523V2.146H41.494V26.9787L34.3255 19.7523Z" fill="#EA5B27"/>
<path d="M74.3254 27.4304V20.204H83.7262L101.639 2.146H113.728V9.37236H104.328L86.4143 27.4304H74.3254ZM83.7262 9.37236H74.3254V2.146H86.4143L92.6867 8.46907L87.7584 13.4372L83.7262 9.37236ZM101.639 27.4304L95.367 21.1073L100.295 16.1392L104.328 20.204H113.728V27.4304H101.639Z" fill="#EA5B27"/>
<path d="M112.887 29.5149H3.11262C1.39125 29.5149 0 28.1045 0 26.3771V3.1529C0 1.42555 1.39911 0.0151367 3.11262 0.0151367H112.887C114.609 0.0151367 116 1.42555 116 3.1529V26.3692C116 28.1045 114.601 29.507 112.887 29.507V29.5149ZM3.11262 0.688647C1.76853 0.688647 0.668112 1.79796 0.668112 3.1529V26.3692C0.668112 27.7321 1.76853 28.8414 3.12048 28.8414H112.887C114.239 28.8414 115.34 27.7321 115.34 26.3692V3.1529C115.34 1.79003 114.239 0.680723 112.887 0.680723H3.11262V0.688647Z" fill="#EA5B28"/>
<path d="M43.1048 2.15466H50.2575V17.5265L52.8828 20.173H72.8476V27.3756H50.2575L43.1048 20.173V2.15466Z" fill="#EA5B27"/>
</svg>
